<svg xmlns="http://www.w3.org/2000/svg" xmlns:xlink="http://www.w3.org/1999/xlink" width="1496.171" height="594.11" viewBox="0 0 1496.171 594.11">
  <defs>
    <linearGradient id="linear-gradient" x1="0.085" y1="0.358" x2="0.958" y2="0.376" gradientUnits="objectBoundingBox">
      <stop offset="0" stop-color="#3aa7ff"/>
      <stop offset="1" stop-color="#1150ff"/>
    </linearGradient>
    <linearGradient id="linear-gradient-2" x1="1" y1="-9.568" x2="0" y2="-9.568" gradientUnits="objectBoundingBox">
      <stop offset="0" stop-color="#0f8ff7"/>
      <stop offset="1" stop-color="#4acfff"/>
    </linearGradient>
    <linearGradient id="linear-gradient-3" x1="-0.07" y1="0.261" x2="0.912" y2="0.293" xlink:href="#linear-gradient-2"/>
    <linearGradient id="linear-gradient-4" x1="0.882" y1="0.53" x2="0.5" y2="0.718" gradientUnits="objectBoundingBox">
      <stop offset="0" stop-color="#1150ff"/>
      <stop offset="1" stop-color="#3aa7ff"/>
    </linearGradient>
    <linearGradient id="linear-gradient-5" x1="0.097" y1="0.5" x2="0.769" y2="0.5" xlink:href="#linear-gradient-4"/>
    <linearGradient id="linear-gradient-6" y1="-9.568" x2="1" y2="-9.568" gradientUnits="objectBoundingBox">
      <stop offset="0" stop-color="#4acfff"/>
      <stop offset="1" stop-color="#0f8ff7"/>
    </linearGradient>
  </defs>
  <g id="Eco-System" transform="translate(-135 -342.264)">
    <g id="_3_Circles" data-name="3 Circles" transform="translate(198.299 404.094)">
      <path id="Path_1816" data-name="Path 1816" d="M18.075,1732.562h30.66c0,113.693,92.485,206.225,206.128,206.225S461,1846.255,461,1732.562h30.65c0,130.549-106.3,236.889-236.784,236.889S18.075,1863.112,18.075,1732.562Z" transform="translate(867.482 -1495.804)" fill="url(#linear-gradient)"/>
      <path id="Path_1821" data-name="Path 1821" d="M34.009,1760.672a15.223,15.223,0,0,0,15.235-15.242c0-113.692,92.5-206.225,206.139-206.225s206.131,92.533,206.131,206.225a15.236,15.236,0,1,0,30.473,0c0-130.548-106.294-236.89-236.783-236.89S18.416,1614.881,18.416,1745.43A15.778,15.778,0,0,0,34.009,1760.672Z" transform="translate(-18.416 -1508.54)" fill="url(#linear-gradient-2)"/>
      <path id="Path_1817" data-name="Path 1817" d="M-166.4,1973.1c-130.491,0-236.784-106.339-236.784-236.889a15.225,15.225,0,0,1,15.235-15.243,15.226,15.226,0,0,1,15.236,15.243c0,113.693,92.491,206.225,206.133,206.225S39.55,1849.908,39.55,1736.216a15.236,15.236,0,1,1,30.473,0C70.381,1866.765-35.912,1973.1-166.4,1973.1Z" transform="translate(846.563 -1496.408)" fill="url(#linear-gradient-3)"/>
      <path id="Path_1823" data-name="Path 1823" d="M-166.4,1973.1c-130.491,0-236.784-106.339-236.784-236.889a15.225,15.225,0,0,1,15.235-15.243,15.226,15.226,0,0,1,15.236,15.243c0,113.693,92.491,206.225,206.133,206.225S39.55,1849.908,39.55,1736.216a15.236,15.236,0,1,1,30.473,0C70.381,1866.765-35.912,1973.1-166.4,1973.1Z" transform="translate(403.605 -1496.408)" fill="url(#linear-gradient-4)"/>
      <path id="Path_1824" data-name="Path 1824" d="M-166.76,1720.973c130.491,0,236.784,106.34,236.784,236.889a15.236,15.236,0,1,1-30.472,0c0-113.693-92.491-206.225-206.133-206.225s-206.132,92.532-206.132,206.225A15.226,15.226,0,0,1-387.95,1973.1a15.226,15.226,0,0,1-15.236-15.243C-403.545,1827.313-297.252,1720.973-166.76,1720.973Z" transform="translate(846.563 -1720.518)" fill="url(#linear-gradient-5)"/>
      <path id="Path_1820" data-name="Path 1820" d="M476.394,1760.672a15.223,15.223,0,0,1-15.235-15.243c0-113.692-92.5-206.225-206.139-206.225S48.889,1631.738,48.889,1745.43a15.236,15.236,0,1,1-30.473,0c0-130.548,106.294-236.89,236.783-236.89s236.788,106.341,236.788,236.89A15.778,15.778,0,0,1,476.394,1760.672Z" transform="translate(867.5 -1507.488)" fill="url(#linear-gradient-6)"/>
    </g>
    <g id="Group_638" data-name="Group 638" transform="translate(135 342.264)">
      <g id="Group_634" data-name="Group 634" transform="translate(1258.122 4.125)">
        <path id="Path_1441" data-name="Path 1441" d="M-160.075,2258.163a1.255,1.255,0,0,0,1.258-1.252,1.254,1.254,0,0,0-1.252-1.258,1.255,1.255,0,0,0-1.258,1.252v0a1.253,1.253,0,0,0,1.249,1.255Z" transform="translate(163.668 -2255.653)" fill="#b3b3b3"/>
        <path id="Path_1442" data-name="Path 1442" d="M-153.1,2259.867a1.256,1.256,0,0,1-1.248-1.262,1.255,1.255,0,0,1,1.263-1.248,1.255,1.255,0,0,1,1.248,1.256,1.223,1.223,0,0,1-1.191,1.255Z" transform="translate(164.032 -2255.564)" fill="#b3b3b3"/>
        <path id="Path_1443" data-name="Path 1443" d="M-146.1,2261.742a1.255,1.255,0,0,0,1.258-1.252,1.254,1.254,0,0,0-1.252-1.258,1.255,1.255,0,0,0-1.258,1.252v0a1.253,1.253,0,0,0,1.249,1.255Z" transform="translate(164.396 -2255.466)" fill="#b3b3b3"/>
        <path id="Path_1444" data-name="Path 1444" d="M-139.125,2263.785a1.256,1.256,0,0,0,1.26-1.251,1.255,1.255,0,0,0-1.252-1.261,1.256,1.256,0,0,0-1.26,1.252v0a1.254,1.254,0,0,0,1.25,1.256Z" transform="translate(164.76 -2255.36)" fill="#b3b3b3"/>
        <path id="Path_1445" data-name="Path 1445" d="M-132.135,2266a1.257,1.257,0,0,1-1.258-1.252,1.255,1.255,0,0,1,1.252-1.259,1.255,1.255,0,0,1,1.258,1.252v0a1.233,1.233,0,0,1-1.21,1.255Z" transform="translate(165.124 -2255.244)" fill="#b3b3b3"/>
        <path id="Path_1446" data-name="Path 1446" d="M-125.325,2268.56a1.256,1.256,0,0,1-1.258-1.252,1.255,1.255,0,0,1,1.252-1.258,1.254,1.254,0,0,1,1.258,1.252v0a1.224,1.224,0,0,1-1.193,1.254Z" transform="translate(165.48 -2255.11)" fill="#b3b3b3"/>
        <path id="Path_1447" data-name="Path 1447" d="M-118.5,2270.947a1.256,1.256,0,0,0,1.248-1.263,1.255,1.255,0,0,0-1.263-1.248,1.255,1.255,0,0,0-1.248,1.255A1.263,1.263,0,0,0-118.5,2270.947Z" transform="translate(165.835 -2254.987)" fill="#b3b3b3"/>
        <path id="Path_1448" data-name="Path 1448" d="M-111.865,2273.844a1.256,1.256,0,0,1-1.258-1.252,1.256,1.256,0,0,1,1.252-1.259,1.255,1.255,0,0,1,1.258,1.252v0a1.13,1.13,0,0,1-.991,1.254A1.1,1.1,0,0,1-111.865,2273.844Z" transform="translate(166.182 -2254.835)" fill="#b3b3b3"/>
        <path id="Path_1449" data-name="Path 1449" d="M-105.216,2276.759a1.414,1.414,0,0,1-1.431-1.4v-.04a1.318,1.318,0,0,1,1.19-1.434,1.369,1.369,0,0,1,.241,0,1.413,1.413,0,0,1,1.441,1.386.373.373,0,0,1,0,.048,1.321,1.321,0,0,1-1.2,1.435A1.326,1.326,0,0,1-105.216,2276.759Z" transform="translate(166.519 -2254.702)" fill="#b3b3b3"/>
        <path id="Path_1450" data-name="Path 1450" d="M-98.566,2280a1.434,1.434,0,0,0,1.427-1.441,1.434,1.434,0,0,0-1.441-1.427,1.435,1.435,0,0,0-1.427,1.433A1.435,1.435,0,0,0-98.574,2280Z" transform="translate(166.866 -2254.533)" fill="#b3b3b3"/>
        <path id="Path_1451" data-name="Path 1451" d="M-92.1,2283.236a1.412,1.412,0,0,1-1.431-1.393v-.041a1.319,1.319,0,0,1,1.191-1.435,1.27,1.27,0,0,1,.24,0,1.435,1.435,0,0,1,1.435,1.434A1.435,1.435,0,0,1-92.1,2283.236Z" transform="translate(167.203 -2254.365)" fill="#b3b3b3"/>
        <path id="Path_1452" data-name="Path 1452" d="M-85.615,2286.644a1.422,1.422,0,0,1-1.441-1.4v-.034a1.321,1.321,0,0,1,1.2-1.435,1.337,1.337,0,0,1,.246,0,1.435,1.435,0,0,1,1.4,1.472A1.436,1.436,0,0,1-85.615,2286.644Z" transform="translate(167.541 -2254.187)" fill="#b3b3b3"/>
        <path id="Path_1453" data-name="Path 1453" d="M-79.316,2290.223a1.435,1.435,0,0,0,1.439-1.431,1.433,1.433,0,0,0-1.431-1.439,1.435,1.435,0,0,0-1.439,1.431v.005A1.434,1.434,0,0,0-79.316,2290.223Z" transform="translate(167.87 -2254)" fill="#b3b3b3"/>
        <path id="Path_1454" data-name="Path 1454" d="M-73.191,2293.974a1.437,1.437,0,0,1-1.429-1.442,1.435,1.435,0,0,1,1.441-1.429,1.435,1.435,0,0,1,1.429,1.435,1.423,1.423,0,0,1-1.409,1.436Z" transform="translate(168.19 -2253.804)" fill="#b3b3b3"/>
        <path id="Path_1455" data-name="Path 1455" d="M-67.046,2297.893a1.435,1.435,0,0,1-1.437-1.43,1.434,1.434,0,0,1,1.431-1.437,1.433,1.433,0,0,1,1.437,1.431v0a1.318,1.318,0,0,1-1.19,1.435A1.369,1.369,0,0,1-67.046,2297.893Z" transform="translate(168.51 -2253.6)" fill="#b3b3b3"/>
        <path id="Path_1456" data-name="Path 1456" d="M-60.916,2301.983a1.435,1.435,0,0,0,1.439-1.431,1.433,1.433,0,0,0-1.431-1.439,1.435,1.435,0,0,0-1.439,1.431v.005A1.434,1.434,0,0,0-60.916,2301.983Z" transform="translate(168.83 -2253.386)" fill="#b3b3b3"/>
        <path id="Path_1457" data-name="Path 1457" d="M-54.956,2306.244a1.437,1.437,0,0,1-1.439-1.431,1.435,1.435,0,0,1,1.431-1.439,1.434,1.434,0,0,1,1.439,1.431v.006A1.542,1.542,0,0,1-54.956,2306.244Z" transform="translate(169.14 -2253.164)" fill="#b3b3b3"/>
        <path id="Path_1458" data-name="Path 1458" d="M-49.166,2310.675a1.412,1.412,0,0,1-1.431-1.393v-.041a1.542,1.542,0,0,1,1.431-1.435,1.415,1.415,0,0,1,1.441,1.388.348.348,0,0,1,0,.047A1.541,1.541,0,0,1-49.166,2310.675Z" transform="translate(169.443 -2252.933)" fill="#b3b3b3"/>
        <path id="Path_1459" data-name="Path 1459" d="M-43.546,2315.1a1.436,1.436,0,0,0,1.439-1.431,1.434,1.434,0,0,0-1.431-1.439,1.435,1.435,0,0,0-1.439,1.431v0A1.438,1.438,0,0,0-43.546,2315.1Z" transform="translate(169.736 -2252.702)" fill="#b3b3b3"/>
        <path id="Path_1460" data-name="Path 1460" d="M-37.916,2319.879a1.414,1.414,0,0,1-1.431-1.4v-.039a1.43,1.43,0,0,1,1.434-1.428,1.43,1.43,0,0,1,1.428,1.434A1.431,1.431,0,0,1-37.916,2319.879Z" transform="translate(170.03 -2252.452)" fill="#b3b3b3"/>
        <path id="Path_1461" data-name="Path 1461" d="M-32.466,2324.651a1.437,1.437,0,0,1-1.439-1.431,1.435,1.435,0,0,1,1.431-1.439,1.434,1.434,0,0,1,1.439,1.431v.005a1.412,1.412,0,0,1-1.389,1.434Z" transform="translate(170.313 -2252.204)" fill="#b3b3b3"/>
        <path id="Path_1462" data-name="Path 1462" d="M-27.191,2329.594a1.434,1.434,0,0,0,1.439-1.43,1.433,1.433,0,0,0-1.431-1.439,1.435,1.435,0,0,0-1.439,1.431v0A1.434,1.434,0,0,0-27.191,2329.594Z" transform="translate(170.589 -2251.947)" fill="#b3b3b3"/>
        <path id="Path_1463" data-name="Path 1463" d="M-21.9,2334.721a1.615,1.615,0,0,1-1.618-1.61,1.614,1.614,0,0,1,1.61-1.618,1.612,1.612,0,0,1,1.618,1.61v0A1.733,1.733,0,0,1-21.9,2334.721Z" transform="translate(170.855 -2251.698)" fill="#b3b3b3"/>
        <path id="Path_1464" data-name="Path 1464" d="M-16.791,2339.82a1.435,1.435,0,0,1-1.437-1.43,1.434,1.434,0,0,1,1.431-1.437,1.433,1.433,0,0,1,1.437,1.431v0A1.541,1.541,0,0,1-16.791,2339.82Z" transform="translate(171.131 -2251.413)" fill="#b3b3b3"/>
        <path id="Path_1465" data-name="Path 1465" d="M-11.856,2345.1a1.435,1.435,0,0,0,1.439-1.431,1.433,1.433,0,0,0-1.431-1.439,1.435,1.435,0,0,0-1.439,1.431v.005A1.436,1.436,0,0,0-11.856,2345.1Z" transform="translate(171.389 -2251.138)" fill="#b3b3b3"/>
        <path id="Path_1466" data-name="Path 1466" d="M-7.091,2350.557a1.413,1.413,0,0,1-1.431-1.393v-.042a1.541,1.541,0,0,1,1.431-1.435,1.434,1.434,0,0,1,1.4,1.472A1.437,1.437,0,0,1-7.091,2350.557Z" transform="translate(171.637 -2250.853)" fill="#b3b3b3"/>
        <path id="Path_1467" data-name="Path 1467" d="M-2.486,2356.182a1.435,1.435,0,0,0,1.439-1.431,1.433,1.433,0,0,0-1.431-1.439,1.435,1.435,0,0,0-1.439,1.431v0A1.434,1.434,0,0,0-2.486,2356.182Z" transform="translate(171.878 -2250.56)" fill="#b3b3b3"/>
        <path id="Path_1468" data-name="Path 1468" d="M2.114,2361.8a1.415,1.415,0,0,1-1.431-1.4v-.04a1.541,1.541,0,0,1,1.431-1.434,1.435,1.435,0,0,1,0,2.869Z" transform="translate(172.117 -2250.266)" fill="#b3b3b3"/>
        <path id="Path_1469" data-name="Path 1469" d="M6.544,2367.6a1.434,1.434,0,1,1,1.431-1.437v0A1.541,1.541,0,0,1,6.544,2367.6Z" transform="translate(172.348 -2249.964)" fill="#b3b3b3"/>
        <path id="Path_1470" data-name="Path 1470" d="M10.809,2373.566a1.435,1.435,0,1,1,1.431-1.439v.005A1.542,1.542,0,0,1,10.809,2373.566Z" transform="translate(172.571 -2249.653)" fill="#b3b3b3"/>
        <path id="Path_1471" data-name="Path 1471" d="M14.894,2379.531a1.435,1.435,0,1,1,1.431-1.439v.005a1.411,1.411,0,0,1-1.389,1.434Z" transform="translate(172.784 -2249.341)" fill="#b3b3b3"/>
        <path id="Path_1472" data-name="Path 1472" d="M18.809,2385.667a1.434,1.434,0,1,1,1.431-1.437v0a1.412,1.412,0,0,1-1.389,1.434Z" transform="translate(172.988 -2249.022)" fill="#b3b3b3"/>
        <path id="Path_1473" data-name="Path 1473" d="M22.554,2391.973A1.435,1.435,0,1,1,24,2390.539,1.54,1.54,0,0,1,22.554,2391.973Z" transform="translate(173.184 -2248.693)" fill="#b3b3b3"/>
        <path id="Path_1474" data-name="Path 1474" d="M26.132,2398.28a1.435,1.435,0,0,1,0-2.87,1.327,1.327,0,0,1,1.441,1.2,1.238,1.238,0,0,1,0,.234A1.55,1.55,0,0,1,26.132,2398.28Z" transform="translate(173.372 -2248.364)" fill="#b3b3b3"/>
        <path id="Path_1475" data-name="Path 1475" d="M29.544,2404.586a1.435,1.435,0,1,1,1.431-1.439v0a1.413,1.413,0,0,1-1.39,1.435Z" transform="translate(173.548 -2248.035)" fill="#b3b3b3"/>
        <path id="Path_1476" data-name="Path 1476" d="M32.786,2411.062a1.435,1.435,0,0,1-.076-2.869q.038,0,.076,0a1.435,1.435,0,0,1,0,2.869Z" transform="translate(173.715 -2247.697)" fill="#b3b3b3"/>
        <path id="Path_1477" data-name="Path 1477" d="M36.014,2417.709a1.412,1.412,0,0,1-1.431-1.393v-.041a1.436,1.436,0,0,1,2.872,0,1.42,1.42,0,0,1-1.406,1.434Z" transform="translate(173.886 -2247.351)" fill="#b3b3b3"/>
        <path id="Path_1478" data-name="Path 1478" d="M38.909,2424.356a1.434,1.434,0,1,1,1.431-1.437v0C40.172,2423.639,39.63,2424.356,38.909,2424.356Z" transform="translate(174.036 -2247.004)" fill="#b3b3b3"/>
        <path id="Path_1479" data-name="Path 1479" d="M41.625,2430.986a1.255,1.255,0,1,1,1.263-1.255C43.066,2430.448,42.351,2430.986,41.625,2430.986Z" transform="translate(174.188 -2246.639)" fill="#b3b3b3"/>
        <path id="Path_1480" data-name="Path 1480" d="M44.185,2437.633a1.255,1.255,0,1,0-1.252-1.258v0a1.253,1.253,0,0,0,1.249,1.255Z" transform="translate(174.321 -2246.292)" fill="#b3b3b3"/>
        <path id="Path_1481" data-name="Path 1481" d="M46.745,2444.621A1.255,1.255,0,1,1,48,2443.362v0a1.227,1.227,0,0,1-1.2,1.256Z" transform="translate(174.454 -2245.928)" fill="#b3b3b3"/>
        <path id="Path_1482" data-name="Path 1482" d="M48.955,2451.608a1.255,1.255,0,1,1,1.252-1.258v0a1.222,1.222,0,0,1-1.191,1.254Z" transform="translate(174.57 -2245.563)" fill="#b3b3b3"/>
        <path id="Path_1483" data-name="Path 1483" d="M50.995,2458.426a1.255,1.255,0,1,1,1.263-1.255,1.224,1.224,0,0,1-1.191,1.255Z" transform="translate(174.676 -2245.208)" fill="#b3b3b3"/>
        <path id="Path_1484" data-name="Path 1484" d="M52.875,2465.585a1.255,1.255,0,1,1,1.252-1.259v0A1.346,1.346,0,0,1,52.875,2465.585Z" transform="translate(174.774 -2244.835)" fill="#b3b3b3"/>
        <path id="Path_1485" data-name="Path 1485" d="M54.575,2472.572a1.255,1.255,0,1,1,1.263-1.255,1.224,1.224,0,0,1-1.193,1.255Z" transform="translate(174.863 -2244.47)" fill="#b3b3b3"/>
        <path id="Path_1486" data-name="Path 1486" d="M56.115,2479.73a1.255,1.255,0,1,1,1.252-1.259v0a1.233,1.233,0,0,1-1.21,1.255Z" transform="translate(174.943 -2244.097)" fill="#b3b3b3"/>
        <path id="Path_1487" data-name="Path 1487" d="M57.475,2486.886a1.255,1.255,0,1,1,1.252-1.259v0A1.346,1.346,0,0,1,57.475,2486.886Z" transform="translate(175.014 -2243.724)" fill="#b3b3b3"/>
        <path id="Path_1488" data-name="Path 1488" d="M58.5,2494.048a1.256,1.256,0,1,1,1.252-1.26v0a1.225,1.225,0,0,1-1.192,1.256Z" transform="translate(175.067 -2243.35)" fill="#b3b3b3"/>
        <path id="Path_1489" data-name="Path 1489" d="M59.515,2501.205a1.255,1.255,0,1,1,1.263-1.255,1.224,1.224,0,0,1-1.191,1.255Z" transform="translate(175.121 -2242.977)" fill="#b3b3b3"/>
        <path id="Path_1490" data-name="Path 1490" d="M60.365,2508.364a1.255,1.255,0,1,0-1.252-1.259v0A1.264,1.264,0,0,0,60.365,2508.364Z" transform="translate(175.165 -2242.604)" fill="#b3b3b3"/>
        <path id="Path_1491" data-name="Path 1491" d="M60.885,2515.692a1.255,1.255,0,1,1,1.252-1.258v0a1.226,1.226,0,0,1-1.2,1.254Z" transform="translate(175.192 -2242.221)" fill="#b3b3b3"/>
        <path id="Path_1492" data-name="Path 1492" d="M61.4,2523.021a1.255,1.255,0,1,0-1.252-1.258v0a1.253,1.253,0,0,0,1.249,1.255Z" transform="translate(175.219 -2241.839)" fill="#b3b3b3"/>
        <path id="Path_1493" data-name="Path 1493" d="M61.556,2530.162a1.032,1.032,0,0,1-1.073-.99c0-.028,0-.057,0-.085a1.073,1.073,0,0,1,2.146-.01v.01a1.032,1.032,0,0,1-.987,1.074A.78.78,0,0,1,61.556,2530.162Z" transform="translate(175.236 -2241.448)" fill="#b3b3b3"/>
        <path id="Path_1494" data-name="Path 1494" d="M61.726,2537.32a1.075,1.075,0,1,0-1.073-1.077v0A1.077,1.077,0,0,0,61.726,2537.32Z" transform="translate(175.245 -2241.074)" fill="#b3b3b3"/>
        <path id="Path_1495" data-name="Path 1495" d="M61.556,2544.649a1.159,1.159,0,0,1-1.073-1.076,1.073,1.073,0,0,1,2.146-.01v.01A1.157,1.157,0,0,1,61.556,2544.649Z" transform="translate(175.236 -2240.692)" fill="#b3b3b3"/>
        <path id="Path_1496" data-name="Path 1496" d="M61.216,2551.807a1.076,1.076,0,1,0-1.073-1.08v0A1.077,1.077,0,0,0,61.216,2551.807Z" transform="translate(175.219 -2240.319)" fill="#b3b3b3"/>
        <path id="Path_1497" data-name="Path 1497" d="M60.707,2559.136a1.076,1.076,0,1,1,1.073-1.08v0a1.031,1.031,0,0,1-.987,1.074C60.764,2559.136,60.736,2559.136,60.707,2559.136Z" transform="translate(175.192 -2239.937)" fill="#b3b3b3"/>
        <path id="Path_1498" data-name="Path 1498" d="M60.016,2566.295a1.076,1.076,0,1,1,1.084-1.076,1.034,1.034,0,0,1-.992,1.076Z" transform="translate(175.156 -2239.563)" fill="#b3b3b3"/>
        <path id="Path_1499" data-name="Path 1499" d="M59.166,2573.623a1.076,1.076,0,1,1,1.073-1.078v0A1.157,1.157,0,0,1,59.166,2573.623Z" transform="translate(175.112 -2239.181)" fill="#b3b3b3"/>
        <path id="Path_1500" data-name="Path 1500" d="M58.147,2580.782a1.077,1.077,0,1,1,1.073-1.08v0A1.158,1.158,0,0,1,58.147,2580.782Z" transform="translate(175.058 -2238.808)" fill="#b3b3b3"/>
        <path id="Path_1501" data-name="Path 1501" d="M56.956,2587.94a1.075,1.075,0,1,0-1.073-1.077h0A1.079,1.079,0,0,0,56.956,2587.94Z" transform="translate(174.997 -2238.434)" fill="#b3b3b3"/>
        <path id="Path_1502" data-name="Path 1502" d="M55.416,2594.928a1.076,1.076,0,1,1,1.084-1.076,1.035,1.035,0,0,1-.992,1.076Z" transform="translate(174.916 -2238.07)" fill="#b3b3b3"/>
        <path id="Path_1503" data-name="Path 1503" d="M53.891,2602.085a1.075,1.075,0,1,1,1.073-1.077v0A1.156,1.156,0,0,1,53.891,2602.085Z" transform="translate(174.836 -2237.697)" fill="#b3b3b3"/>
        <path id="Path_1504" data-name="Path 1504" d="M52.192,2609.074a1.076,1.076,0,1,1,1.073-1.08v0A1.158,1.158,0,0,1,52.192,2609.074Z" transform="translate(174.748 -2237.332)" fill="#b3b3b3"/>
        <path id="Path_1505" data-name="Path 1505" d="M50.136,2616.062a1.077,1.077,0,1,1,1.084-1.077A1.157,1.157,0,0,1,50.136,2616.062Z" transform="translate(174.641 -2236.967)" fill="#b3b3b3"/>
        <path id="Path_1506" data-name="Path 1506" d="M48.091,2623.051a1.076,1.076,0,0,1,0-2.152h0a.947.947,0,0,1,1.074.8.961.961,0,0,1,0,.275Q48.9,2623.051,48.091,2623.051Z" transform="translate(174.534 -2236.604)" fill="#b3b3b3"/>
        <path id="Path_1507" data-name="Path 1507" d="M45.707,2629.868a1.032,1.032,0,0,1-1.073-.99c0-.029,0-.057,0-.086a.948.948,0,0,1,.8-1.076.932.932,0,0,1,.276,0,1.076,1.076,0,1,1,0,2.152Z" transform="translate(174.409 -2236.248)" fill="#b3b3b3"/>
        <path id="Path_1508" data-name="Path 1508" d="M43.148,2636.667a.9.9,0,1,1,.894-.9v0a.84.84,0,0,1-.783.9A.709.709,0,0,1,43.148,2636.667Z" transform="translate(174.285 -2235.874)" fill="#b3b3b3"/>
        <path id="Path_1509" data-name="Path 1509" d="M40.582,2643.484a.9.9,0,1,1,.9-.9.842.842,0,0,1-.782.9A.863.863,0,0,1,40.582,2643.484Z" transform="translate(174.152 -2235.519)" fill="#b3b3b3"/>
        <path id="Path_1510" data-name="Path 1510" d="M37.7,2650.131a.9.9,0,1,0-.894-.9v0a.9.9,0,0,0,.892.9Z" transform="translate(174.001 -2235.172)" fill="#b3b3b3"/>
        <path id="Path_1511" data-name="Path 1511" d="M34.8,2656.778a.9.9,0,1,1,.894-.9v0A.961.961,0,0,1,34.8,2656.778Z" transform="translate(173.85 -2234.825)" fill="#b3b3b3"/>
        <path id="Path_1512" data-name="Path 1512" d="M31.557,2663.25a.9.9,0,1,1,.9-.9.841.841,0,0,1-.782.9A.691.691,0,0,1,31.557,2663.25Z" transform="translate(173.681 -2234.488)" fill="#b3b3b3"/>
        <path id="Path_1513" data-name="Path 1513" d="M28.16,2669.731a.9.9,0,1,0-.123,0Q28.1,2669.734,28.16,2669.731Z" transform="translate(173.501 -2234.149)" fill="#b3b3b3"/>
        <path id="Path_1514" data-name="Path 1514" d="M24.748,2676.038a.9.9,0,1,1,.894-.9h0a.84.84,0,0,1-.782.9A.722.722,0,0,1,24.748,2676.038Z" transform="translate(173.326 -2233.821)" fill="#b3b3b3"/>
        <path id="Path_1515" data-name="Path 1515" d="M21,2682.344a.9.9,0,1,0-.894-.9v0a.9.9,0,0,0,.894.9Z" transform="translate(173.13 -2233.492)" fill="#b3b3b3"/>
        <path id="Path_1516" data-name="Path 1516" d="M17.247,2688.479a.9.9,0,1,1,.9-.9A.967.967,0,0,1,17.247,2688.479Z" transform="translate(172.935 -2233.172)" fill="#b3b3b3"/>
        <path id="Path_1517" data-name="Path 1517" d="M13.154,2694.615a.9.9,0,1,0,.124-1.788.753.753,0,0,0-.124,0,.9.9,0,0,0,0,1.788Z" transform="translate(172.724 -2232.852)" fill="#b3b3b3"/>
        <path id="Path_1518" data-name="Path 1518" d="M9.083,2700.58a.9.9,0,1,1,.894-.9v0a.855.855,0,0,1-.81.9Z" transform="translate(172.509 -2232.541)" fill="#b3b3b3"/>
        <path id="Path_1519" data-name="Path 1519" d="M4.817,2706.55a.9.9,0,1,0-.894-.9h0a.9.9,0,0,0,.893.9Z" transform="translate(172.286 -2232.229)" fill="#b3b3b3"/>
        <path id="Path_1520" data-name="Path 1520" d="M.383,2712.17a.9.9,0,1,1,.894-.9v0C1.1,2711.811.746,2712.17.383,2712.17Z" transform="translate(172.055 -2231.936)" fill="#b3b3b3"/>
        <path id="Path_1521" data-name="Path 1521" d="M-4.218,2717.794a.96.96,0,0,1-.894-.9.842.842,0,0,1,.784-.9.642.642,0,0,1,.11,0,.9.9,0,0,1,.833.955.9.9,0,0,1-.833.833Z" transform="translate(171.815 -2231.643)" fill="#b3b3b3"/>
        <path id="Path_1522" data-name="Path 1522" d="M-8.991,2723.4a.718.718,0,0,1-.72-.715.718.718,0,0,1,.715-.72.717.717,0,0,1,.72.716v0a.657.657,0,0,1-.589.718A.838.838,0,0,1-8.991,2723.4Z" transform="translate(171.575 -2231.332)" fill="#b3b3b3"/>
        <path id="Path_1523" data-name="Path 1523" d="M-13.762,2728.684a.718.718,0,0,0,.72-.715.717.717,0,0,0-.715-.72.717.717,0,0,0-.72.715v0A.721.721,0,0,0-13.762,2728.684Z" transform="translate(171.327 -2231.056)" fill="#b3b3b3"/>
        <path id="Path_1524" data-name="Path 1524" d="M-18.871,2733.968a.719.719,0,0,1-.72-.716.718.718,0,0,1,.715-.72.717.717,0,0,1,.72.715v0a.657.657,0,0,1-.589.718A.908.908,0,0,1-18.871,2733.968Z" transform="translate(171.06 -2230.781)" fill="#b3b3b3"/>
        <path id="Path_1525" data-name="Path 1525" d="M-23.981,2739.081a.717.717,0,0,1-.718-.716.716.716,0,0,1,.715-.718.715.715,0,0,1,.718.715A.771.771,0,0,1-23.981,2739.081Z" transform="translate(170.794 -2230.514)" fill="#b3b3b3"/>
        <path id="Path_1526" data-name="Path 1526" d="M-29.261,2744.024a.717.717,0,0,0,.709-.726.717.717,0,0,0-.726-.709.717.717,0,0,0-.709.718.721.721,0,0,0,.724.717Z" transform="translate(170.518 -2230.256)" fill="#b3b3b3"/>
        <path id="Path_1527" data-name="Path 1527" d="M-34.552,2748.966a.719.719,0,0,1-.709-.726.717.717,0,0,1,.726-.709.717.717,0,0,1,.709.717A.77.77,0,0,1-34.552,2748.966Z" transform="translate(170.243 -2229.999)" fill="#b3b3b3"/>
        <path id="Path_1528" data-name="Path 1528" d="M-40.172,2753.738a.716.716,0,0,0,.718-.715.715.715,0,0,0-.715-.718.716.716,0,0,0-.718.716h0a.715.715,0,0,0,.71.716Z" transform="translate(169.949 -2229.75)" fill="#b3b3b3"/>
        <path id="Path_1529" data-name="Path 1529" d="M-45.791,2758.34a.718.718,0,0,1-.72-.715.717.717,0,0,1,.715-.719.716.716,0,0,1,.72.715v0A.771.771,0,0,1-45.791,2758.34Z" transform="translate(169.656 -2229.51)" fill="#b3b3b3"/>
        <path id="Path_1530" data-name="Path 1530" d="M-51.581,2762.772a.719.719,0,0,1-.72-.716.718.718,0,0,1,.715-.72.717.717,0,0,1,.72.716v0a.655.655,0,0,1-.589.716A.727.727,0,0,1-51.581,2762.772Z" transform="translate(169.354 -2229.278)" fill="#b3b3b3"/>
        <path id="Path_1531" data-name="Path 1531" d="M-57.371,2767.2a.718.718,0,0,0,.709-.726.716.716,0,0,0-.726-.709.717.717,0,0,0-.709.717.721.721,0,0,0,.722.718Z" transform="translate(169.052 -2229.047)" fill="#b3b3b3"/>
        <path id="Path_1532" data-name="Path 1532" d="M-63.342,2771.293a.717.717,0,0,0,.72-.715.717.717,0,0,0-.715-.72.717.717,0,0,0-.72.716v0A.723.723,0,0,0-63.342,2771.293Z" transform="translate(168.741 -2228.834)" fill="#b3b3b3"/>
        <path id="Path_1533" data-name="Path 1533" d="M-69.471,2775.214a.719.719,0,0,1-.72-.716.718.718,0,0,1,.715-.72.717.717,0,0,1,.72.716v0A.771.771,0,0,1-69.471,2775.214Z" transform="translate(168.421 -2228.629)" fill="#b3b3b3"/>
        <path id="Path_1534" data-name="Path 1534" d="M-75.6,2779.132a.719.719,0,0,1-.72-.716.718.718,0,0,1,.715-.719.716.716,0,0,1,.72.715v0A.771.771,0,0,1-75.6,2779.132Z" transform="translate(168.101 -2228.425)" fill="#b3b3b3"/>
        <path id="Path_1535" data-name="Path 1535" d="M-81.912,2782.883a.718.718,0,0,0,.72-.715.717.717,0,0,0-.715-.719.717.717,0,0,0-.72.715v0A.722.722,0,0,0-81.912,2782.883Z" transform="translate(167.772 -2228.229)" fill="#b3b3b3"/>
        <path id="Path_1536" data-name="Path 1536" d="M-88.22,2786.274a.573.573,0,0,1-.537-.539.811.811,0,0,1,.537-.538.539.539,0,0,1,.515.562A.539.539,0,0,1-88.22,2786.274Z" transform="translate(167.453 -2228.034)" fill="#b3b3b3"/>
        <path id="Path_1537" data-name="Path 1537" d="M-94.691,2789.682a.538.538,0,0,1-.533-.542.538.538,0,0,1,.533-.533.8.8,0,0,1,.537.537C-93.975,2789.324-94.333,2789.682-94.691,2789.682Z" transform="translate(167.115 -2227.856)" fill="#b3b3b3"/>
        <path id="Path_1538" data-name="Path 1538" d="M-101.17,2792.75a.537.537,0,0,0,.539-.537.536.536,0,0,0-.537-.539.538.538,0,0,0-.539.537h0A.54.54,0,0,0-101.17,2792.75Z" transform="translate(166.777 -2227.695)" fill="#b3b3b3"/>
        <path id="Path_1539" data-name="Path 1539" d="M-107.81,2795.814a.539.539,0,0,1-.539-.537.537.537,0,0,1,.537-.539.536.536,0,0,1,.539.537h0a.473.473,0,0,1-.4.537A.444.444,0,0,1-107.81,2795.814Z" transform="translate(166.431 -2227.536)" fill="#b3b3b3"/>
        <path id="Path_1540" data-name="Path 1540" d="M-114.45,2798.714a.539.539,0,0,1-.541-.537.539.539,0,0,1,.537-.541.538.538,0,0,1,.541.537v0a.477.477,0,0,1-.41.538A.438.438,0,0,1-114.45,2798.714Z" transform="translate(166.084 -2227.385)" fill="#b3b3b3"/>
        <path id="Path_1541" data-name="Path 1541" d="M-121.27,2801.272a.539.539,0,0,1-.539-.537.537.537,0,0,1,.537-.539.536.536,0,0,1,.539.536v0a.473.473,0,0,1-.4.537A.437.437,0,0,1-121.27,2801.272Z" transform="translate(165.729 -2227.251)" fill="#b3b3b3"/>
        <path id="Path_1542" data-name="Path 1542" d="M-128.08,2803.83a.539.539,0,0,0,.539-.539.538.538,0,0,0-.539-.538.538.538,0,0,0-.538.538A.538.538,0,0,0-128.08,2803.83Z" transform="translate(165.374 -2227.118)" fill="#b3b3b3"/>
        <path id="Path_1543" data-name="Path 1543" d="M-134.9,2806.214a.538.538,0,0,1-.539-.536.537.537,0,0,1,.537-.538.536.536,0,0,1,.539.536h0A.807.807,0,0,1-134.9,2806.214Z" transform="translate(165.018 -2226.994)" fill="#b3b3b3"/>
        <path id="Path_1544" data-name="Path 1544" d="M-141.88,2808.26a.539.539,0,0,0,.53-.547.537.537,0,0,0-.547-.53.538.538,0,0,0-.53.539.54.54,0,0,0,.539.539Z" transform="translate(164.653 -2226.887)" fill="#b3b3b3"/>
        <path id="Path_1545" data-name="Path 1545" d="M-148.87,2810.305a.539.539,0,0,1-.539-.537.537.537,0,0,1,.537-.539.536.536,0,0,1,.539.537h0A.571.571,0,0,1-148.87,2810.305Z" transform="translate(164.289 -2226.78)" fill="#b3b3b3"/>
        <path id="Path_1546" data-name="Path 1546" d="M-155.851,2812.18a.538.538,0,0,0,.535-.542.538.538,0,0,0-.535-.534.537.537,0,0,0-.533.541A.538.538,0,0,0-155.851,2812.18Z" transform="translate(163.925 -2226.683)" fill="#b3b3b3"/>
        <path id="Path_1547" data-name="Path 1547" d="M-163.01,2813.714a.475.475,0,0,1-.537-.4.484.484,0,0,1,0-.135.537.537,0,0,1,.538-.535.536.536,0,0,1,.536.538A.536.536,0,0,1-163.01,2813.714Z" transform="translate(163.551 -2226.602)" fill="#b3b3b3"/>
      </g>
      <g id="Group_635" data-name="Group 635" transform="translate(0)">
        <path id="Path_1612" data-name="Path 1612" d="M-1118.735,2816.442a.574.574,0,0,1-.538-.538.475.475,0,0,1,.4-.538.409.409,0,0,1,.136,0,.474.474,0,0,1,.538.4.435.435,0,0,1,0,.137.475.475,0,0,1-.4.538A.513.513,0,0,1-1118.735,2816.442Z" transform="translate(1371.826 -2222.336)" fill="#b3b3b3"/>
        <path id="Path_1613" data-name="Path 1613" d="M-1125.886,2815.248a.537.537,0,0,0,.537-.537.537.537,0,0,0-.536-.539h0a.538.538,0,0,0-.538.539A.538.538,0,0,0-1125.886,2815.248Z" transform="translate(1371.453 -2222.398)" fill="#b3b3b3"/>
        <path id="Path_1614" data-name="Path 1614" d="M-1133.042,2813.885a.538.538,0,0,0,.538-.538.537.537,0,0,0-.538-.538.537.537,0,0,0-.537.538A.538.538,0,0,0-1133.042,2813.885Z" transform="translate(1371.08 -2222.469)" fill="#b3b3b3"/>
        <path id="Path_1615" data-name="Path 1615" d="M-1140.027,2812.181a.475.475,0,0,1-.538-.4.462.462,0,0,1,0-.134.475.475,0,0,1,.4-.538.471.471,0,0,1,.134,0,.473.473,0,0,1,.537.4.428.428,0,0,1,0,.137A.57.57,0,0,1-1140.027,2812.181Z" transform="translate(1370.716 -2222.558)" fill="#b3b3b3"/>
        <path id="Path_1616" data-name="Path 1616" d="M-1147.179,2810.476a.537.537,0,0,0,.538-.538.537.537,0,0,0-.537-.539h0a.537.537,0,0,0-.538.538h0A.538.538,0,0,0-1147.179,2810.476Z" transform="translate(1370.343 -2222.647)" fill="#b3b3b3"/>
        <path id="Path_1617" data-name="Path 1617" d="M-1154.167,2808.43a.537.537,0,0,0,.537-.537.536.536,0,0,0-.537-.538.537.537,0,0,0-.538.538.538.538,0,0,0,.536.537Z" transform="translate(1369.979 -2222.754)" fill="#b3b3b3"/>
        <path id="Path_1618" data-name="Path 1618" d="M-1160.98,2806.385a.475.475,0,0,1-.537-.4.46.46,0,0,1,0-.136.474.474,0,0,1,.4-.538.409.409,0,0,1,.136,0,.474.474,0,0,1,.538.4.437.437,0,0,1,0,.137A.57.57,0,0,1-1160.98,2806.385Z" transform="translate(1369.623 -2222.861)" fill="#b3b3b3"/>
        <path id="Path_1619" data-name="Path 1619" d="M-1167.964,2804a.476.476,0,0,1-.538-.4.494.494,0,0,1,0-.135.475.475,0,0,1,.4-.538.409.409,0,0,1,.136,0,.475.475,0,0,1,.538.4.491.491,0,0,1,0,.134.475.475,0,0,1-.4.537A.453.453,0,0,1-1167.964,2804Z" transform="translate(1369.258 -2222.985)" fill="#b3b3b3"/>
        <path id="Path_1620" data-name="Path 1620" d="M-1174.781,2801.614a.537.537,0,0,0,.538-.538.536.536,0,0,0-.536-.538h0a.537.537,0,0,0-.538.538A.538.538,0,0,0-1174.781,2801.614Z" transform="translate(1368.903 -2223.109)" fill="#b3b3b3"/>
        <path id="Path_1621" data-name="Path 1621" d="M-1181.593,2798.887a.476.476,0,0,1-.538-.4.488.488,0,0,1,0-.136.476.476,0,0,1,.4-.539.478.478,0,0,1,.135,0,.474.474,0,0,1,.537.4.467.467,0,0,1,0,.134C-1180.877,2798.705-1181.234,2798.887-1181.593,2798.887Z" transform="translate(1368.548 -2223.252)" fill="#b3b3b3"/>
        <path id="Path_1622" data-name="Path 1622" d="M-1188.235,2796.159a.475.475,0,0,1-.537-.4.464.464,0,0,1,0-.134.474.474,0,0,1,.4-.537.438.438,0,0,1,.134,0,.473.473,0,0,1,.538.4.427.427,0,0,1,0,.136A.572.572,0,0,1-1188.235,2796.159Z" transform="translate(1368.201 -2223.394)" fill="#b3b3b3"/>
        <path id="Path_1623" data-name="Path 1623" d="M-1194.882,2793.091a.537.537,0,0,0,.538-.537.537.537,0,0,0-.538-.538.537.537,0,0,0-.538.538A.538.538,0,0,0-1194.882,2793.091Z" transform="translate(1367.855 -2223.553)" fill="#b3b3b3"/>
        <path id="Path_1624" data-name="Path 1624" d="M-1201.355,2789.854a.574.574,0,0,1-.537-.538.573.573,0,0,1,.537-.539.571.571,0,0,1,.538.539.475.475,0,0,1-.4.538A.514.514,0,0,1-1201.355,2789.854Z" transform="translate(1367.517 -2223.722)" fill="#b3b3b3"/>
        <path id="Path_1625" data-name="Path 1625" d="M-1207.827,2786.615a.576.576,0,0,1-.539-.539.572.572,0,0,1,.539-.538.572.572,0,0,1,.538.538A.574.574,0,0,1-1207.827,2786.615Z" transform="translate(1367.18 -2223.891)" fill="#b3b3b3"/>
        <path id="Path_1626" data-name="Path 1626" d="M-1214.126,2783.224a.718.718,0,0,0,.718-.718h0a.717.717,0,0,0-.718-.718h0a.717.717,0,0,0-.717.718.717.717,0,0,0,.716.718Z" transform="translate(1366.842 -2224.087)" fill="#b3b3b3"/>
        <path id="Path_1627" data-name="Path 1627" d="M-1220.427,2779.475a.772.772,0,0,1-.718-.718.77.77,0,0,1,.718-.717.769.769,0,0,1,.717.717A.772.772,0,0,1-1220.427,2779.475Z" transform="translate(1366.513 -2224.282)" fill="#b3b3b3"/>
        <path id="Path_1628" data-name="Path 1628" d="M-1226.558,2775.554a.772.772,0,0,1-.718-.716.771.771,0,0,1,.718-.717.77.77,0,0,1,.716.717C-1226.021,2775.375-1226.2,2775.554-1226.558,2775.554Z" transform="translate(1366.193 -2224.487)" fill="#b3b3b3"/>
        <path id="Path_1629" data-name="Path 1629" d="M-1232.7,2771.632a.717.717,0,0,0,.717-.716h0a.715.715,0,0,0-.716-.718h0a.715.715,0,0,0-.716.715v0a.716.716,0,0,0,.716.716Z" transform="translate(1365.873 -2224.692)" fill="#b3b3b3"/>
        <path id="Path_1630" data-name="Path 1630" d="M-1238.656,2767.544a.772.772,0,0,1-.717-.717.771.771,0,0,1,.717-.718.77.77,0,0,1,.717.718A.771.771,0,0,1-1238.656,2767.544Z" transform="translate(1365.562 -2224.905)" fill="#b3b3b3"/>
        <path id="Path_1631" data-name="Path 1631" d="M-1244.449,2763.113a.772.772,0,0,1-.717-.717.771.771,0,0,1,.717-.718.769.769,0,0,1,.717.718C-1243.912,2762.933-1244.091,2763.113-1244.449,2763.113Z" transform="translate(1365.26 -2225.136)" fill="#b3b3b3"/>
        <path id="Path_1632" data-name="Path 1632" d="M-1250.242,2758.681a.773.773,0,0,1-.717-.718.77.77,0,0,1,.717-.716.769.769,0,0,1,.718.716A.771.771,0,0,1-1250.242,2758.681Z" transform="translate(1364.958 -2225.367)" fill="#b3b3b3"/>
        <path id="Path_1633" data-name="Path 1633" d="M-1255.864,2754.079a.771.771,0,0,1-.716-.717.771.771,0,0,1,.716-.718.769.769,0,0,1,.717.718.655.655,0,0,1-.588.717A.627.627,0,0,1-1255.864,2754.079Z" transform="translate(1364.665 -2225.607)" fill="#b3b3b3"/>
        <path id="Path_1634" data-name="Path 1634" d="M-1261.484,2749.477a.771.771,0,0,1-.716-.717.771.771,0,0,1,.716-.718.77.77,0,0,1,.718.718.657.657,0,0,1-.59.717A.792.792,0,0,1-1261.484,2749.477Z" transform="translate(1364.372 -2225.847)" fill="#b3b3b3"/>
        <path id="Path_1635" data-name="Path 1635" d="M-1266.766,2744.532a.717.717,0,0,0,.716-.717h0a.717.717,0,0,0-.716-.718.717.717,0,0,0-.717.718.718.718,0,0,0,.716.718Z" transform="translate(1364.096 -2226.105)" fill="#b3b3b3"/>
        <path id="Path_1636" data-name="Path 1636" d="M-1272.046,2739.592a.772.772,0,0,1-.718-.718.771.771,0,0,1,.718-.717.77.77,0,0,1,.717.717A.771.771,0,0,1-1272.046,2739.592Z" transform="translate(1363.821 -2226.362)" fill="#b3b3b3"/>
        <path id="Path_1637" data-name="Path 1637" d="M-1277.327,2734.309a.717.717,0,0,0,.717-.717h0a.716.716,0,0,0-.717-.717.718.718,0,0,0-.718.717h0a.718.718,0,0,0,.718.718Z" transform="translate(1363.545 -2226.638)" fill="#b3b3b3"/>
        <path id="Path_1638" data-name="Path 1638" d="M-1282.27,2729.2a.772.772,0,0,1-.717-.717.771.771,0,0,1,.717-.718.77.77,0,0,1,.718.718A.77.77,0,0,1-1282.27,2729.2Z" transform="translate(1363.288 -2226.905)" fill="#b3b3b3"/>
        <path id="Path_1639" data-name="Path 1639" d="M-1287.206,2723.742a.772.772,0,0,1-.718-.718.771.771,0,0,1,.718-.718.77.77,0,0,1,.716.718.655.655,0,0,1-.589.717A.715.715,0,0,1-1287.206,2723.742Z" transform="translate(1363.03 -2227.189)" fill="#b3b3b3"/>
        <path id="Path_1640" data-name="Path 1640" d="M-1291.808,2718.288a.774.774,0,0,1-.717-.718.771.771,0,0,1,.717-.717.769.769,0,0,1,.716.717A.771.771,0,0,1-1291.808,2718.288Z" transform="translate(1362.79 -2227.474)" fill="#b3b3b3"/>
        <path id="Path_1641" data-name="Path 1641" d="M-1296.4,2712.681a.849.849,0,0,1-.9-.8.821.821,0,0,1,0-.1.847.847,0,0,1,.794-.9.712.712,0,0,1,.1,0,.846.846,0,0,1,.9.794.787.787,0,0,1,0,.1A.961.961,0,0,1-1296.4,2712.681Z" transform="translate(1362.541 -2227.785)" fill="#b3b3b3"/>
        <path id="Path_1642" data-name="Path 1642" d="M-1301,2706.886a.843.843,0,0,1-.9-.784.911.911,0,0,1,0-.113.848.848,0,0,1,.794-.9c.035,0,.068,0,.1,0a.848.848,0,0,1,.9.8.889.889,0,0,1,0,.1.842.842,0,0,1-.783.9C-1300.921,2706.888-1300.959,2706.888-1301,2706.886Z" transform="translate(1362.301 -2228.087)" fill="#b3b3b3"/>
        <path id="Path_1643" data-name="Path 1643" d="M-1305.259,2701.092a.9.9,0,0,0,.9-.9h0a.9.9,0,0,0-.9-.9h0a.9.9,0,0,0-.9.9h0A.9.9,0,0,0-1305.259,2701.092Z" transform="translate(1362.079 -2228.389)" fill="#b3b3b3"/>
        <path id="Path_1644" data-name="Path 1644" d="M-1309.348,2695.127a.848.848,0,0,1-.9-.794.906.906,0,0,1,0-.1.847.847,0,0,1,.794-.9.787.787,0,0,1,.1,0,.84.84,0,0,1,.9.783.672.672,0,0,1,0,.113A.961.961,0,0,1-1309.348,2695.127Z" transform="translate(1361.866 -2228.701)" fill="#b3b3b3"/>
        <path id="Path_1645" data-name="Path 1645" d="M-1313.433,2689.161a.849.849,0,0,1-.9-.8.776.776,0,0,1,0-.1.849.849,0,0,1,.794-.9h.1a.848.848,0,0,1,.9.8.889.889,0,0,1,0,.1A.961.961,0,0,1-1313.433,2689.161Z" transform="translate(1361.653 -2229.012)" fill="#b3b3b3"/>
        <path id="Path_1646" data-name="Path 1646" d="M-1317.184,2682.85a.9.9,0,0,0,.9-.9.9.9,0,0,0-.9-.9.9.9,0,0,0-.9.9h0a.9.9,0,0,0,.9.9Z" transform="translate(1361.457 -2229.341)" fill="#b3b3b3"/>
        <path id="Path_1647" data-name="Path 1647" d="M-1320.929,2676.719a.849.849,0,0,1-.9-.8.776.776,0,0,1,0-.1.849.849,0,0,1,.794-.9c.035,0,.068,0,.1,0a.841.841,0,0,1,.9.784.645.645,0,0,1,0,.113.84.84,0,0,1-.783.9A.789.789,0,0,1-1320.929,2676.719Z" transform="translate(1361.262 -2229.66)" fill="#b3b3b3"/>
        <path id="Path_1648" data-name="Path 1648" d="M-1324.509,2670.243a.842.842,0,0,1-.9-.785.941.941,0,0,1,0-.111.842.842,0,0,1,.783-.9.722.722,0,0,1,.113,0,.84.84,0,0,1,.9.783.69.69,0,0,1,0,.115.842.842,0,0,1-.783.9A1.105,1.105,0,0,1-1324.509,2670.243Z" transform="translate(1361.075 -2229.999)" fill="#b3b3b3"/>
        <path id="Path_1649" data-name="Path 1649" d="M-1327.747,2663.766a.9.9,0,0,0,.9-.895v0a.9.9,0,0,0-.895-.9h0a.9.9,0,0,0-.9.9h0a.9.9,0,0,0,.9.9Z" transform="translate(1360.906 -2230.336)" fill="#b3b3b3"/>
        <path id="Path_1650" data-name="Path 1650" d="M-1330.981,2657.29a.848.848,0,0,1-.9-.794.767.767,0,0,1,0-.1.847.847,0,0,1,.794-.9.885.885,0,0,1,.1,0,.846.846,0,0,1,.9.794.833.833,0,0,1,0,.1.847.847,0,0,1-.793.9A.81.81,0,0,1-1330.981,2657.29Z" transform="translate(1360.738 -2230.674)" fill="#b3b3b3"/>
        <path id="Path_1651" data-name="Path 1651" d="M-1334.047,2650.813a.842.842,0,0,1-.9-.785.941.941,0,0,1,0-.111.842.842,0,0,1,.784-.9.81.81,0,0,1,.112,0,.842.842,0,0,1,.9.783.741.741,0,0,1,0,.114.842.842,0,0,1-.783.9A.981.981,0,0,1-1334.047,2650.813Z" transform="translate(1360.578 -2231.012)" fill="#b3b3b3"/>
        <path id="Path_1652" data-name="Path 1652" d="M-1336.945,2644a.849.849,0,0,1-.9-.794.861.861,0,0,1,0-.1.849.849,0,0,1,.794-.9c.035,0,.068,0,.1,0a.847.847,0,0,1,.9.8.787.787,0,0,1,0,.1C-1335.87,2643.637-1336.408,2644-1336.945,2644Z" transform="translate(1360.427 -2231.367)" fill="#b3b3b3"/>
        <path id="Path_1653" data-name="Path 1653" d="M-1339.5,2637.35a.843.843,0,0,1-.9-.785,1.018,1.018,0,0,1,0-.113.842.842,0,0,1,.784-.9.809.809,0,0,1,.111,0,.847.847,0,0,1,.9.8.817.817,0,0,1,0,.1.842.842,0,0,1-.783.9A.981.981,0,0,1-1339.5,2637.35Z" transform="translate(1360.293 -2231.715)" fill="#b3b3b3"/>
        <path id="Path_1654" data-name="Path 1654" d="M-1342.054,2630.531a.849.849,0,0,1-.9-.8.868.868,0,0,1,0-.1.849.849,0,0,1,.794-.9h.1a.842.842,0,0,1,.9.785.7.7,0,0,1,0,.113C-1340.979,2629.993-1341.517,2630.531-1342.054,2630.531Z" transform="translate(1360.16 -2232.069)" fill="#b3b3b3"/>
        <path id="Path_1655" data-name="Path 1655" d="M-1344.435,2623.732a1.076,1.076,0,0,0,1.076-1.076,1.076,1.076,0,0,0-1.076-1.076,1.076,1.076,0,0,0-1.075,1.076A1.077,1.077,0,0,0-1344.435,2623.732Z" transform="translate(1360.027 -2232.443)" fill="#b3b3b3"/>
        <path id="Path_1656" data-name="Path 1656" d="M-1346.478,2616.744a1.159,1.159,0,0,1-1.075-1.076,1.157,1.157,0,0,1,1.075-1.076,1.157,1.157,0,0,1,1.076,1.076C-1345.581,2616.205-1345.939,2616.744-1346.478,2616.744Z" transform="translate(1359.92 -2232.807)" fill="#b3b3b3"/>
        <path id="Path_1657" data-name="Path 1657" d="M-1348.521,2609.755a1.158,1.158,0,0,1-1.075-1.076,1.157,1.157,0,0,1,1.075-1.076,1.156,1.156,0,0,1,1.076,1.076A1.158,1.158,0,0,1-1348.521,2609.755Z" transform="translate(1359.813 -2233.172)" fill="#b3b3b3"/>
        <path id="Path_1658" data-name="Path 1658" d="M-1350.224,2602.767a1.075,1.075,0,0,0,1.075-1.075h0a1.073,1.073,0,0,0-1.073-1.075h0a1.075,1.075,0,0,0-1.075,1.075A1.077,1.077,0,0,0-1350.224,2602.767Z" transform="translate(1359.725 -2233.536)" fill="#b3b3b3"/>
        <path id="Path_1659" data-name="Path 1659" d="M-1351.927,2595.61a1.159,1.159,0,0,1-1.075-1.076,1.157,1.157,0,0,1,1.075-1.076,1.156,1.156,0,0,1,1.075,1.076,1.033,1.033,0,0,1-.988,1.076C-1351.869,2595.611-1351.9,2595.611-1351.927,2595.61Z" transform="translate(1359.636 -2233.91)" fill="#b3b3b3"/>
        <path id="Path_1660" data-name="Path 1660" d="M-1353.29,2588.451a1.076,1.076,0,0,0,1.075-1.075,1.075,1.075,0,0,0-1.075-1.076,1.075,1.075,0,0,0-1.075,1.075h0A1.076,1.076,0,0,0-1353.29,2588.451Z" transform="translate(1359.565 -2234.283)" fill="#b3b3b3"/>
        <path id="Path_1661" data-name="Path 1661" d="M-1354.482,2581.293a1.077,1.077,0,0,0,1.077-1.077,1.075,1.075,0,0,0-1.077-1.075,1.076,1.076,0,0,0-1.075,1.075A1.078,1.078,0,0,0-1354.482,2581.293Z" transform="translate(1359.503 -2234.656)" fill="#b3b3b3"/>
        <path id="Path_1662" data-name="Path 1662" d="M-1355.677,2574.135a1.159,1.159,0,0,1-1.075-1.077,1.158,1.158,0,0,1,1.075-1.076,1.156,1.156,0,0,1,1.075,1.076,1.033,1.033,0,0,1-.988,1.077Z" transform="translate(1359.44 -2235.03)" fill="#b3b3b3"/>
        <path id="Path_1663" data-name="Path 1663" d="M-1356.528,2566.976a1.158,1.158,0,0,1-1.076-1.075,1.159,1.159,0,0,1,1.076-1.076,1.156,1.156,0,0,1,1.075,1.076,1.033,1.033,0,0,1-.989,1.075A.846.846,0,0,1-1356.528,2566.976Z" transform="translate(1359.396 -2235.403)" fill="#b3b3b3"/>
        <path id="Path_1664" data-name="Path 1664" d="M-1357.209,2559.647a1.076,1.076,0,0,0,1.075-1.075,1.075,1.075,0,0,0-1.075-1.076,1.075,1.075,0,0,0-1.075,1.075h0a1.076,1.076,0,0,0,1.073,1.075Z" transform="translate(1359.36 -2235.785)" fill="#b3b3b3"/>
        <path id="Path_1665" data-name="Path 1665" d="M-1357.72,2552.489a1.159,1.159,0,0,1-1.075-1.075,1.158,1.158,0,0,1,1.075-1.077,1.156,1.156,0,0,1,1.075,1.077,1.033,1.033,0,0,1-.987,1.075Z" transform="translate(1359.334 -2236.158)" fill="#b3b3b3"/>
        <path id="Path_1666" data-name="Path 1666" d="M-1358.064,2545.159a1.158,1.158,0,0,1-1.075-1.075,1.157,1.157,0,0,1,1.075-1.076,1.156,1.156,0,0,1,1.076,1.076,1.033,1.033,0,0,1-.989,1.075Z" transform="translate(1359.316 -2236.541)" fill="#b3b3b3"/>
        <path id="Path_1667" data-name="Path 1667" d="M-1358.232,2537.832a1.077,1.077,0,0,0,1.076-1.077,1.074,1.074,0,0,0-1.075-1.075h0a1.075,1.075,0,0,0-1.075,1.075A1.078,1.078,0,0,0-1358.232,2537.832Z" transform="translate(1359.307 -2236.923)" fill="#b3b3b3"/>
        <path id="Path_1668" data-name="Path 1668" d="M-1358.064,2530.673a1.035,1.035,0,0,1-1.075-.99c0-.029,0-.057,0-.085a1.034,1.034,0,0,1,.989-1.077h.086a1.157,1.157,0,0,1,1.076,1.077A1.158,1.158,0,0,1-1358.064,2530.673Z" transform="translate(1359.316 -2237.296)" fill="#b3b3b3"/>
        <path id="Path_1669" data-name="Path 1669" d="M-1357.884,2523.363a1.227,1.227,0,0,1-1.255-1.2v-.06a1.225,1.225,0,0,1,1.2-1.255.473.473,0,0,1,.059,0,1.225,1.225,0,0,1,1.254,1.2.526.526,0,0,1,0,.059,1.226,1.226,0,0,1-1.194,1.256Z" transform="translate(1359.316 -2237.697)" fill="#b3b3b3"/>
        <path id="Path_1670" data-name="Path 1670" d="M-1357.54,2516.2a1.256,1.256,0,0,0,1.254-1.255,1.254,1.254,0,0,0-1.254-1.255,1.255,1.255,0,0,0-1.255,1.255A1.256,1.256,0,0,0-1357.54,2516.2Z" transform="translate(1359.334 -2238.07)" fill="#b3b3b3"/>
        <path id="Path_1671" data-name="Path 1671" d="M-1356.861,2508.875a1.227,1.227,0,0,1-1.254-1.2v-.058a1.226,1.226,0,0,1,1.2-1.256h.059a1.225,1.225,0,0,1,1.255,1.2.556.556,0,0,1,0,.061A1.512,1.512,0,0,1-1356.861,2508.875Z" transform="translate(1359.369 -2238.452)" fill="#b3b3b3"/>
        <path id="Path_1672" data-name="Path 1672" d="M-1356.177,2501.717a1.256,1.256,0,0,0,1.254-1.256,1.254,1.254,0,0,0-1.254-1.255,1.255,1.255,0,0,0-1.255,1.255A1.256,1.256,0,0,0-1356.177,2501.717Z" transform="translate(1359.405 -2238.825)" fill="#b3b3b3"/>
        <path id="Path_1673" data-name="Path 1673" d="M-1355.158,2494.559a1.256,1.256,0,0,0,1.255-1.255,1.255,1.255,0,0,0-1.255-1.255,1.255,1.255,0,0,0-1.254,1.255A1.257,1.257,0,0,0-1355.158,2494.559Z" transform="translate(1359.458 -2239.199)" fill="#b3b3b3"/>
        <path id="Path_1674" data-name="Path 1674" d="M-1353.962,2487.4a1.227,1.227,0,0,1-1.255-1.2v-.06a1.225,1.225,0,0,1,1.2-1.255.394.394,0,0,1,.059,0,1.224,1.224,0,0,1,1.254,1.2c0,.019,0,.039,0,.059a1.225,1.225,0,0,1-1.194,1.256Z" transform="translate(1359.52 -2239.572)" fill="#b3b3b3"/>
        <path id="Path_1675" data-name="Path 1675" d="M-1352.6,2480.241a1.226,1.226,0,0,1-1.255-1.2v-.059a1.227,1.227,0,0,1,1.2-1.255h.057a1.225,1.225,0,0,1,1.254,1.2.526.526,0,0,1,0,.059A1.346,1.346,0,0,1-1352.6,2480.241Z" transform="translate(1359.591 -2239.946)" fill="#b3b3b3"/>
        <path id="Path_1676" data-name="Path 1676" d="M-1351.236,2473.085a1.256,1.256,0,0,0,1.255-1.255,1.255,1.255,0,0,0-1.255-1.255,1.255,1.255,0,0,0-1.254,1.255A1.256,1.256,0,0,0-1351.236,2473.085Z" transform="translate(1359.663 -2240.319)" fill="#b3b3b3"/>
        <path id="Path_1677" data-name="Path 1677" d="M-1349.533,2466.1a1.226,1.226,0,0,1-1.254-1.2v-.06a1.224,1.224,0,0,1,1.194-1.255.493.493,0,0,1,.06,0,1.224,1.224,0,0,1,1.255,1.2.548.548,0,0,1,0,.06,1.226,1.226,0,0,1-1.2,1.255Z" transform="translate(1359.751 -2240.683)" fill="#b3b3b3"/>
        <path id="Path_1678" data-name="Path 1678" d="M-1347.662,2459.107a1.226,1.226,0,0,1-1.254-1.2v-.06a1.225,1.225,0,0,1,1.194-1.255.491.491,0,0,1,.06,0,1.224,1.224,0,0,1,1.255,1.195.552.552,0,0,1,0,.06,1.226,1.226,0,0,1-1.2,1.255Z" transform="translate(1359.849 -2241.048)" fill="#b3b3b3"/>
        <path id="Path_1679" data-name="Path 1679" d="M-1345.615,2452.12a1.256,1.256,0,0,0,1.255-1.255,1.255,1.255,0,0,0-1.255-1.256,1.255,1.255,0,0,0-1.254,1.256A1.257,1.257,0,0,0-1345.615,2452.12Z" transform="translate(1359.956 -2241.412)" fill="#b3b3b3"/>
        <path id="Path_1680" data-name="Path 1680" d="M-1343.4,2445.131a1.226,1.226,0,0,1-1.254-1.2v-.06a1.225,1.225,0,0,1,1.2-1.255h.058a1.224,1.224,0,0,1,1.255,1.2.489.489,0,0,1,0,.06,1.226,1.226,0,0,1-1.2,1.255Z" transform="translate(1360.071 -2241.777)" fill="#b3b3b3"/>
        <path id="Path_1681" data-name="Path 1681" d="M-1341.017,2438.314a1.226,1.226,0,0,1-1.254-1.2v-.06a1.225,1.225,0,0,1,1.194-1.255h.06a1.225,1.225,0,0,1,1.255,1.2.552.552,0,0,1,0,.06,1.226,1.226,0,0,1-1.2,1.255Z" transform="translate(1360.196 -2242.132)" fill="#b3b3b3"/>
        <path id="Path_1682" data-name="Path 1682" d="M-1338.29,2431.5a1.227,1.227,0,0,1-1.255-1.2v-.06a1.225,1.225,0,0,1,1.2-1.256h.059a1.225,1.225,0,0,1,1.254,1.2.534.534,0,0,1,0,.059,1.225,1.225,0,0,1-1.194,1.256Z" transform="translate(1360.338 -2242.488)" fill="#b3b3b3"/>
        <path id="Path_1683" data-name="Path 1683" d="M-1335.564,2424.85a1.226,1.226,0,0,1-1.254-1.2v-.059a1.226,1.226,0,0,1,1.2-1.255h.058a1.225,1.225,0,0,1,1.255,1.2c0,.02,0,.04,0,.06a1.227,1.227,0,0,1-1.2,1.256Z" transform="translate(1360.48 -2242.834)" fill="#b3b3b3"/>
        <path id="Path_1684" data-name="Path 1684" d="M-1332.662,2418.22a1.415,1.415,0,0,1-1.434-1.395v-.04a1.32,1.32,0,0,1,1.2-1.435,1.3,1.3,0,0,1,.239,0,1.413,1.413,0,0,1,1.434,1.393v.042a1.414,1.414,0,0,1-1.391,1.434Z" transform="translate(1360.622 -2243.199)" fill="#b3b3b3"/>
        <path id="Path_1685" data-name="Path 1685" d="M-1329.591,2411.744a1.436,1.436,0,0,0,1.434-1.435,1.434,1.434,0,0,0-1.434-1.434h0a1.433,1.433,0,0,0-1.433,1.433h0a1.436,1.436,0,0,0,1.433,1.435Z" transform="translate(1360.782 -2243.537)" fill="#b3b3b3"/>
        <path id="Path_1686" data-name="Path 1686" d="M-1326.357,2405.1a1.416,1.416,0,0,1-1.434-1.395v-.041a1.319,1.319,0,0,1,1.194-1.434,1.27,1.27,0,0,1,.24,0,1.413,1.413,0,0,1,1.434,1.393v.041a1.414,1.414,0,0,1-1.392,1.436Z" transform="translate(1360.951 -2243.884)" fill="#b3b3b3"/>
        <path id="Path_1687" data-name="Path 1687" d="M-1322.951,2398.791a1.435,1.435,0,0,0,1.434-1.435,1.434,1.434,0,0,0-1.434-1.434h0a1.434,1.434,0,0,0-1.434,1.434h0A1.435,1.435,0,0,0-1322.951,2398.791Z" transform="translate(1361.128 -2244.212)" fill="#b3b3b3"/>
        <path id="Path_1688" data-name="Path 1688" d="M-1319.373,2392.484a1.435,1.435,0,0,0,1.434-1.434h0a1.435,1.435,0,0,0-1.434-1.435,1.435,1.435,0,0,0-1.434,1.435,1.436,1.436,0,0,0,1.434,1.434Z" transform="translate(1361.315 -2244.542)" fill="#b3b3b3"/>
        <path id="Path_1689" data-name="Path 1689" d="M-1315.623,2386.178a1.542,1.542,0,0,1-1.434-1.434,1.543,1.543,0,0,1,1.434-1.435,1.541,1.541,0,0,1,1.434,1.435,1.413,1.413,0,0,1-1.391,1.434Z" transform="translate(1361.51 -2244.87)" fill="#b3b3b3"/>
        <path id="Path_1690" data-name="Path 1690" d="M-1311.7,2380.043a1.545,1.545,0,0,1-1.434-1.435,1.544,1.544,0,0,1,1.434-1.434,1.54,1.54,0,0,1,1.434,1.434,1.319,1.319,0,0,1-1.194,1.434A1.381,1.381,0,0,1-1311.7,2380.043Z" transform="translate(1361.715 -2245.19)" fill="#b3b3b3"/>
        <path id="Path_1691" data-name="Path 1691" d="M-1307.615,2374.078a1.435,1.435,0,0,0,1.434-1.435,1.434,1.434,0,0,0-1.434-1.434h0a1.434,1.434,0,0,0-1.434,1.434h0A1.435,1.435,0,0,0-1307.615,2374.078Z" transform="translate(1361.928 -2245.501)" fill="#b3b3b3"/>
        <path id="Path_1692" data-name="Path 1692" d="M-1303.357,2368.112a1.543,1.543,0,0,1-1.434-1.434,1.543,1.543,0,0,1,1.434-1.435,1.542,1.542,0,0,1,1.434,1.435A1.543,1.543,0,0,1-1303.357,2368.112Z" transform="translate(1362.15 -2245.813)" fill="#b3b3b3"/>
        <path id="Path_1693" data-name="Path 1693" d="M-1298.927,2362.317a1.434,1.434,0,0,0,1.433-1.434,1.433,1.433,0,0,0-1.433-1.435h0a1.435,1.435,0,0,0-1.434,1.435,1.435,1.435,0,0,0,1.434,1.434Z" transform="translate(1362.381 -2246.115)" fill="#b3b3b3"/>
        <path id="Path_1694" data-name="Path 1694" d="M-1294.5,2356.693a1.415,1.415,0,0,1-1.434-1.394v-.041a1.414,1.414,0,0,1,1.394-1.434.185.185,0,0,1,.04,0,1.412,1.412,0,0,1,1.434,1.393v.041a1.414,1.414,0,0,1-1.392,1.435Z" transform="translate(1362.612 -2246.408)" fill="#b3b3b3"/>
        <path id="Path_1695" data-name="Path 1695" d="M-1289.9,2351.07a1.416,1.416,0,0,1-1.434-1.394v-.041a1.542,1.542,0,0,1,1.434-1.434,1.541,1.541,0,0,1,1.434,1.434,1.415,1.415,0,0,1-1.392,1.435Z" transform="translate(1362.852 -2246.702)" fill="#b3b3b3"/>
        <path id="Path_1696" data-name="Path 1696" d="M-1284.959,2345.615a1.415,1.415,0,0,1-1.434-1.394v-.041a1.54,1.54,0,0,1,1.434-1.434,1.411,1.411,0,0,1,1.434,1.391v.043A1.542,1.542,0,0,1-1284.959,2345.615Z" transform="translate(1363.11 -2246.986)" fill="#b3b3b3"/>
        <path id="Path_1697" data-name="Path 1697" d="M-1280.017,2340.332a1.416,1.416,0,0,1-1.434-1.394v-.04a1.414,1.414,0,0,1,1.393-1.435.232.232,0,0,1,.041,0,1.412,1.412,0,0,1,1.434,1.393v.042A1.544,1.544,0,0,1-1280.017,2340.332Z" transform="translate(1363.368 -2247.262)" fill="#b3b3b3"/>
        <path id="Path_1698" data-name="Path 1698" d="M-1275.068,2335.066a1.609,1.609,0,0,1-1.614-1.6v-.013a1.607,1.607,0,0,1,1.6-1.615h.015a1.607,1.607,0,0,1,1.613,1.6v.015a1.608,1.608,0,0,1-1.6,1.614Z" transform="translate(1363.616 -2247.555)" fill="#b3b3b3"/>
        <path id="Path_1699" data-name="Path 1699" d="M-1269.791,2330.1a1.416,1.416,0,0,1-1.434-1.4v-.039a1.544,1.544,0,0,1,1.434-1.434,1.413,1.413,0,0,1,1.434,1.393.253.253,0,0,1,0,.041,1.414,1.414,0,0,1-1.392,1.435Z" transform="translate(1363.901 -2247.795)" fill="#b3b3b3"/>
        <path id="Path_1700" data-name="Path 1700" d="M-1264.513,2324.992a1.434,1.434,0,0,0,1.434-1.434h0a1.436,1.436,0,0,0-1.434-1.437,1.436,1.436,0,0,0-1.434,1.437,1.435,1.435,0,0,0,1.434,1.434Z" transform="translate(1364.176 -2248.062)" fill="#b3b3b3"/>
        <path id="Path_1701" data-name="Path 1701" d="M-1259.065,2320.22a1.415,1.415,0,0,1-1.433-1.4v-.04a1.543,1.543,0,0,1,1.433-1.434,1.412,1.412,0,0,1,1.434,1.393.256.256,0,0,1,0,.041,1.414,1.414,0,0,1-1.392,1.435Z" transform="translate(1364.46 -2248.311)" fill="#b3b3b3"/>
        <path id="Path_1702" data-name="Path 1702" d="M-1253.443,2315.618a1.415,1.415,0,0,1-1.434-1.394v-.04a1.414,1.414,0,0,1,1.393-1.436h.041a1.414,1.414,0,0,1,1.433,1.394v.041a1.413,1.413,0,0,1-1.393,1.434Z" transform="translate(1364.754 -2248.551)" fill="#b3b3b3"/>
        <path id="Path_1703" data-name="Path 1703" d="M-1247.822,2311.017a1.415,1.415,0,0,1-1.434-1.394v-.041a1.541,1.541,0,0,1,1.434-1.434,1.413,1.413,0,0,1,1.434,1.393v.041a1.415,1.415,0,0,1-1.394,1.435Z" transform="translate(1365.047 -2248.791)" fill="#b3b3b3"/>
        <path id="Path_1704" data-name="Path 1704" d="M-1242.029,2306.585a1.545,1.545,0,0,1-1.434-1.435,1.541,1.541,0,0,1,1.434-1.434,1.543,1.543,0,0,1,1.434,1.434,1.416,1.416,0,0,1-1.394,1.435Z" transform="translate(1365.349 -2249.022)" fill="#b3b3b3"/>
        <path id="Path_1705" data-name="Path 1705" d="M-1236.065,2302.324a1.545,1.545,0,0,1-1.433-1.434,1.542,1.542,0,0,1,1.433-1.435,1.541,1.541,0,0,1,1.434,1.435,1.414,1.414,0,0,1-1.393,1.434Z" transform="translate(1365.66 -2249.244)" fill="#b3b3b3"/>
        <path id="Path_1706" data-name="Path 1706" d="M-1230.1,2298.234a1.544,1.544,0,0,1-1.433-1.435,1.541,1.541,0,0,1,1.433-1.434,1.54,1.54,0,0,1,1.434,1.434,1.319,1.319,0,0,1-1.194,1.434A1.459,1.459,0,0,1-1230.1,2298.234Z" transform="translate(1365.971 -2249.458)" fill="#b3b3b3"/>
        <path id="Path_1707" data-name="Path 1707" d="M-1223.971,2294.314a1.545,1.545,0,0,1-1.434-1.435,1.542,1.542,0,0,1,1.434-1.434,1.54,1.54,0,0,1,1.434,1.434,1.319,1.319,0,0,1-1.194,1.434A1.405,1.405,0,0,1-1223.971,2294.314Z" transform="translate(1366.291 -2249.661)" fill="#b3b3b3"/>
        <path id="Path_1708" data-name="Path 1708" d="M-1217.666,2290.564a1.435,1.435,0,0,0,1.434-1.434h0a1.433,1.433,0,0,0-1.433-1.435h0a1.434,1.434,0,0,0-1.434,1.434h0a1.435,1.435,0,0,0,1.434,1.434Z" transform="translate(1366.62 -2249.857)" fill="#b3b3b3"/>
        <path id="Path_1709" data-name="Path 1709" d="M-1211.361,2286.986a1.415,1.415,0,0,1-1.434-1.394v-.041a1.32,1.32,0,0,1,1.194-1.434,1.312,1.312,0,0,1,.24,0,1.318,1.318,0,0,1,1.433,1.192,1.337,1.337,0,0,1,0,.242,1.415,1.415,0,0,1-1.392,1.435Z" transform="translate(1366.948 -2250.044)" fill="#b3b3b3"/>
        <path id="Path_1710" data-name="Path 1710" d="M-1205.061,2283.4a1.415,1.415,0,0,1-1.434-1.4v-.039a1.321,1.321,0,0,1,1.194-1.435,1.71,1.71,0,0,1,.24,0,1.415,1.415,0,0,1,1.434,1.395v.041a1.32,1.32,0,0,1-1.194,1.434A1.381,1.381,0,0,1-1205.061,2283.4Z" transform="translate(1367.277 -2250.231)" fill="#b3b3b3"/>
        <path id="Path_1711" data-name="Path 1711" d="M-1198.416,2280.167a1.414,1.414,0,0,1-1.434-1.392v-.042a1.414,1.414,0,0,1,1.393-1.435.191.191,0,0,1,.041,0,1.414,1.414,0,0,1,1.434,1.395.25.25,0,0,1,0,.041C-1197.162,2279.63-1197.7,2280.167-1198.416,2280.167Z" transform="translate(1367.624 -2250.4)" fill="#b3b3b3"/>
        <path id="Path_1712" data-name="Path 1712" d="M-1191.943,2277.1a1.432,1.432,0,0,0,1.433-1.433h0a1.433,1.433,0,0,0-1.433-1.435h0a1.435,1.435,0,0,0-1.434,1.435,1.434,1.434,0,0,0,1.434,1.434Z" transform="translate(1367.961 -2250.559)" fill="#b3b3b3"/>
        <path id="Path_1713" data-name="Path 1713" d="M-1185.3,2274.2a1.435,1.435,0,0,0,1.434-1.434h0a1.435,1.435,0,0,0-1.434-1.435,1.435,1.435,0,0,0-1.434,1.435,1.435,1.435,0,0,0,1.434,1.434Z" transform="translate(1368.308 -2250.711)" fill="#b3b3b3"/>
        <path id="Path_1714" data-name="Path 1714" d="M-1178.494,2271.286a1.226,1.226,0,0,1-1.254-1.2v-.059a1.225,1.225,0,0,1,1.2-1.255.459.459,0,0,1,.058,0,1.224,1.224,0,0,1,1.255,1.2c0,.02,0,.04,0,.06a1.226,1.226,0,0,1-1.194,1.256Z" transform="translate(1368.672 -2250.844)" fill="#b3b3b3"/>
        <path id="Path_1715" data-name="Path 1715" d="M-1171.677,2268.73a1.226,1.226,0,0,1-1.255-1.2v-.059a1.225,1.225,0,0,1,1.2-1.255.475.475,0,0,1,.059,0,1.223,1.223,0,0,1,1.254,1.194.57.57,0,0,1,0,.061,1.224,1.224,0,0,1-1.193,1.255Z" transform="translate(1369.028 -2250.977)" fill="#b3b3b3"/>
        <path id="Path_1716" data-name="Path 1716" d="M-1164.865,2266.344a1.226,1.226,0,0,1-1.254-1.2v-.06a1.225,1.225,0,0,1,1.194-1.255.491.491,0,0,1,.06,0,1.224,1.224,0,0,1,1.255,1.195c0,.02,0,.04,0,.06a1.226,1.226,0,0,1-1.2,1.255Z" transform="translate(1369.383 -2251.102)" fill="#b3b3b3"/>
        <path id="Path_1717" data-name="Path 1717" d="M-1158.049,2263.958a1.256,1.256,0,0,0,1.255-1.255,1.255,1.255,0,0,0-1.255-1.255,1.254,1.254,0,0,0-1.254,1.255A1.256,1.256,0,0,0-1158.049,2263.958Z" transform="translate(1369.739 -2251.227)" fill="#b3b3b3"/>
        <path id="Path_1718" data-name="Path 1718" d="M-1151.064,2261.914a1.227,1.227,0,0,1-1.255-1.2v-.059a1.225,1.225,0,0,1,1.2-1.255.475.475,0,0,1,.059,0,1.223,1.223,0,0,1,1.254,1.194.556.556,0,0,1,0,.061C-1149.629,2261.375-1150.347,2261.914-1151.064,2261.914Z" transform="translate(1370.103 -2251.333)" fill="#b3b3b3"/>
        <path id="Path_1719" data-name="Path 1719" d="M-1143.908,2260.038a1.256,1.256,0,0,0,1.255-1.255,1.255,1.255,0,0,0-1.255-1.255,1.254,1.254,0,0,0-1.254,1.254h0a1.255,1.255,0,0,0,1.253,1.255Z" transform="translate(1370.476 -2251.43)" fill="#b3b3b3"/>
        <path id="Path_1720" data-name="Path 1720" d="M-1136.924,2258.333a1.226,1.226,0,0,1-1.254-1.195v-.06a1.225,1.225,0,0,1,1.2-1.255.458.458,0,0,1,.058,0,1.224,1.224,0,0,1,1.255,1.2.548.548,0,0,1,0,.06,1.226,1.226,0,0,1-1.2,1.255Z" transform="translate(1370.84 -2251.52)" fill="#b3b3b3"/>
        <path id="Path_1721" data-name="Path 1721" d="M-1129.767,2256.8a1.227,1.227,0,0,1-1.255-1.2v-.059a1.226,1.226,0,0,1,1.2-1.256h.059a1.225,1.225,0,0,1,1.254,1.2c0,.02,0,.039,0,.059a1.225,1.225,0,0,1-1.193,1.255Z" transform="translate(1371.214 -2251.6)" fill="#b3b3b3"/>
        <path id="Path_1722" data-name="Path 1722" d="M-1122.615,2255.436a1.226,1.226,0,0,1-1.254-1.2v-.06a1.225,1.225,0,0,1,1.194-1.255.491.491,0,0,1,.06,0,1.224,1.224,0,0,1,1.255,1.2c0,.02,0,.04,0,.06a1.226,1.226,0,0,1-1.2,1.255Z" transform="translate(1371.587 -2251.67)" fill="#b3b3b3"/>
        <path id="Path_1723" data-name="Path 1723" d="M-1115.459,2254.243a1.256,1.256,0,0,0,1.255-1.255,1.255,1.255,0,0,0-1.255-1.256,1.255,1.255,0,0,0-1.254,1.256A1.256,1.256,0,0,0-1115.459,2254.243Z" transform="translate(1371.96 -2251.733)" fill="#b3b3b3"/>
      </g>
    </g>
  </g>
</svg>
