<svg xmlns="http://www.w3.org/2000/svg" viewBox="0 0 289.74 267.11"><defs><style>.cls-1{fill:#fff;fill-rule:evenodd;}</style></defs><g id="Layer_2" data-name="Layer 2"><g id="Layer_1-2" data-name="Layer 1"><polygon class="cls-1" points="18.55 124.56 16.8 129.27 28.63 133.67 16.8 138.07 18.55 142.79 34.38 136.9 34.38 130.44 18.55 124.56 18.55 124.56"/><polygon class="cls-1" points="50.47 124.56 48.72 129.27 60.56 133.67 48.72 138.07 50.47 142.79 66.3 136.9 66.3 130.44 50.47 124.56 50.47 124.56"/><polygon class="cls-1" points="82.39 124.56 80.64 129.27 92.48 133.67 80.64 138.07 82.39 142.79 98.22 136.9 98.22 130.44 82.39 124.56 82.39 124.56"/><polygon class="cls-1" points="114.31 124.56 112.56 129.27 124.4 133.67 112.56 138.07 114.31 142.79 130.14 136.9 130.14 130.44 114.31 124.56 114.31 124.56"/><polygon class="cls-1" points="146.22 124.56 144.48 129.27 156.31 133.67 144.48 138.07 146.22 142.79 162.05 136.9 162.05 130.44 146.22 124.56 146.22 124.56"/><polygon class="cls-1" points="178.14 124.56 176.4 129.27 188.23 133.67 176.4 138.07 178.14 142.79 193.97 136.9 193.97 130.44 178.14 124.56 178.14 124.56"/><polygon class="cls-1" points="210.06 124.56 208.32 129.27 220.15 133.67 208.32 138.07 210.06 142.79 225.89 136.9 225.89 130.44 210.06 124.56 210.06 124.56"/><polygon class="cls-1" points="241.99 124.56 240.24 129.27 252.07 133.67 240.24 138.07 241.99 142.79 257.82 136.9 257.82 130.44 241.99 124.56 241.99 124.56"/><polygon class="cls-1" points="273.91 124.56 272.16 129.27 283.99 133.67 272.16 138.07 273.91 142.79 289.74 136.9 289.74 130.44 273.91 124.56 273.91 124.56"/><polygon class="cls-1" points="1.75 149.16 0 153.87 11.83 158.27 0 162.67 1.75 167.39 17.58 161.5 17.58 155.04 1.75 149.16 1.75 149.16"/><polygon class="cls-1" points="33.67 149.16 31.92 153.87 43.75 158.27 31.92 162.67 33.67 167.39 49.5 161.5 49.5 155.04 33.67 149.16 33.67 149.16"/><polygon class="cls-1" points="65.59 149.16 63.84 153.87 75.67 158.27 63.84 162.67 65.59 167.39 81.42 161.5 81.42 155.04 65.59 149.16 65.59 149.16"/><polygon class="cls-1" points="97.51 149.16 95.76 153.87 107.6 158.27 95.76 162.67 97.51 167.39 113.34 161.5 113.34 155.04 97.51 149.16 97.51 149.16"/><polygon class="cls-1" points="129.43 149.16 127.68 153.87 139.52 158.27 127.68 162.67 129.43 167.39 145.26 161.5 145.26 155.04 129.43 149.16 129.43 149.16"/><polygon class="cls-1" points="161.35 149.16 159.6 153.87 171.44 158.27 159.6 162.67 161.35 167.39 177.18 161.5 177.18 155.04 161.35 149.16 161.35 149.16"/><polygon class="cls-1" points="193.26 149.16 191.52 153.87 203.35 158.27 191.52 162.67 193.26 167.39 209.09 161.5 209.09 155.04 193.26 149.16 193.26 149.16"/><polygon class="cls-1" points="225.18 149.16 223.44 153.87 235.27 158.27 223.44 162.67 225.18 167.39 241.01 161.5 241.01 155.04 225.18 149.16 225.18 149.16"/><polygon class="cls-1" points="257.11 149.16 255.36 153.87 267.19 158.27 255.36 162.67 257.11 167.39 272.93 161.5 272.93 155.04 257.11 149.16 257.11 149.16"/><polygon class="cls-1" points="33.67 99.84 31.92 104.53 43.75 108.9 31.92 113.26 33.67 117.95 49.5 112.11 49.5 105.69 33.67 99.84 33.67 99.84"/><polygon class="cls-1" points="65.59 99.84 63.84 104.53 75.67 108.9 63.84 113.26 65.59 117.95 81.42 112.11 81.42 105.69 65.59 99.84 65.59 99.84"/><polygon class="cls-1" points="97.51 99.84 95.76 104.53 107.59 108.9 95.76 113.26 97.51 117.95 113.34 112.11 113.34 105.69 97.51 99.84 97.51 99.84"/><polygon class="cls-1" points="129.43 99.84 127.68 104.53 139.51 108.9 127.68 113.26 129.43 117.95 145.26 112.11 145.26 105.69 129.43 99.84 129.43 99.84"/><polygon class="cls-1" points="161.35 99.84 159.6 104.53 171.44 108.9 159.6 113.26 161.35 117.95 177.18 112.11 177.18 105.69 161.35 99.84 161.35 99.84"/><polygon class="cls-1" points="193.27 99.84 191.52 104.53 203.36 108.9 191.52 113.26 193.27 117.95 209.1 112.11 209.1 105.69 193.27 99.84 193.27 99.84"/><polygon class="cls-1" points="225.19 99.84 223.44 104.53 235.28 108.9 223.44 113.26 225.19 117.95 241.02 112.11 241.02 105.69 225.19 99.84 225.19 99.84"/><polygon class="cls-1" points="257.1 99.84 255.36 104.53 267.19 108.9 255.36 113.26 257.1 117.95 272.93 112.11 272.93 105.69 257.1 99.84 257.1 99.84"/><polygon class="cls-1" points="176.35 74.76 174.6 79.45 186.44 83.81 174.6 88.18 176.35 92.86 192.18 87.03 192.18 80.61 176.35 74.76 176.35 74.76"/><polygon class="cls-1" points="208.26 74.76 206.52 79.45 218.35 83.81 206.52 88.18 208.26 92.86 224.09 87.03 224.09 80.61 208.26 74.76 208.26 74.76"/><polygon class="cls-1" points="240.18 74.76 238.44 79.45 250.27 83.81 238.44 88.18 240.18 92.86 256.01 87.03 256.01 80.61 240.18 74.76 240.18 74.76"/><polygon class="cls-1" points="160.15 49.92 158.4 54.61 170.23 58.97 158.4 63.34 160.15 68.03 175.98 62.19 175.98 55.77 160.15 49.92 160.15 49.92"/><polygon class="cls-1" points="192.07 49.92 190.32 54.61 202.16 58.97 190.32 63.34 192.07 68.03 207.9 62.19 207.9 55.77 192.07 49.92 192.07 49.92"/><polygon class="cls-1" points="223.99 49.92 222.24 54.61 234.08 58.97 222.24 63.34 223.99 68.03 239.82 62.19 239.82 55.77 223.99 49.92 223.99 49.92"/><polygon class="cls-1" points="143.35 24.96 141.6 29.67 153.43 34.07 141.6 38.47 143.35 43.19 159.18 37.3 159.18 30.84 143.35 24.96 143.35 24.96"/><polygon class="cls-1" points="175.27 24.96 173.52 29.67 185.35 34.07 173.52 38.47 175.27 43.19 191.1 37.3 191.1 30.84 175.27 24.96 175.27 24.96"/><polygon class="cls-1" points="207.19 24.96 205.44 29.67 217.27 34.07 205.44 38.47 207.19 43.19 223.02 37.3 223.02 30.84 207.19 24.96 207.19 24.96"/><polygon class="cls-1" points="126.43 0 124.68 4.72 136.51 9.11 124.68 13.51 126.43 18.23 142.26 12.34 142.26 5.88 126.43 0 126.43 0"/><polygon class="cls-1" points="158.35 0 156.6 4.72 168.43 9.11 156.6 13.51 158.35 18.23 174.18 12.34 174.18 5.88 158.35 0 158.35 0"/><polygon class="cls-1" points="190.27 0 188.52 4.72 200.35 9.11 188.52 13.51 190.27 18.23 206.1 12.34 206.1 5.88 190.27 0 190.27 0"/><polygon class="cls-1" points="176.35 192.47 174.6 187.75 186.43 183.35 174.6 178.95 176.35 174.24 192.18 180.13 192.18 186.58 176.35 192.47 176.35 192.47"/><polygon class="cls-1" points="208.27 192.47 206.52 187.75 218.35 183.35 206.52 178.95 208.27 174.24 224.1 180.13 224.1 186.58 208.27 192.47 208.27 192.47"/><polygon class="cls-1" points="240.19 192.47 238.44 187.75 250.27 183.35 238.44 178.95 240.19 174.24 256.02 180.13 256.02 186.58 240.19 192.47 240.19 192.47"/><polygon class="cls-1" points="160.27 217.31 158.52 212.59 170.35 208.19 158.52 203.79 160.27 199.08 176.09 204.97 176.09 211.42 160.27 217.31 160.27 217.31"/><polygon class="cls-1" points="192.19 217.31 190.44 212.59 202.27 208.19 190.44 203.79 192.19 199.08 208.02 204.97 208.02 211.42 192.19 217.31 192.19 217.31"/><polygon class="cls-1" points="224.11 217.31 222.36 212.59 234.19 208.19 222.36 203.79 224.11 199.08 239.94 204.97 239.94 211.42 224.11 217.31 224.11 217.31"/><polygon class="cls-1" points="143.34 242.16 141.6 237.43 153.43 233.04 141.6 228.64 143.34 223.92 159.17 229.81 159.17 236.27 143.34 242.16 143.34 242.16"/><polygon class="cls-1" points="175.27 242.16 173.52 237.43 185.35 233.04 173.52 228.64 175.27 223.92 191.09 229.81 191.09 236.27 175.27 242.16 175.27 242.16"/><polygon class="cls-1" points="207.19 242.16 205.44 237.43 217.27 233.04 205.44 228.64 207.19 223.92 223.02 229.81 223.02 236.27 207.19 242.16 207.19 242.16"/><polygon class="cls-1" points="126.42 267.11 124.68 262.39 136.51 257.99 124.68 253.6 126.42 248.88 142.25 254.76 142.25 261.22 126.42 267.11 126.42 267.11"/><polygon class="cls-1" points="158.34 267.11 156.6 262.39 168.43 257.99 156.6 253.6 158.34 248.88 174.17 254.76 174.17 261.22 158.34 267.11 158.34 267.11"/><polygon class="cls-1" points="190.27 267.11 188.52 262.39 200.35 257.99 188.52 253.6 190.27 248.88 206.09 254.76 206.09 261.22 190.27 267.11 190.27 267.11"/></g></g></svg>