<svg xmlns="http://www.w3.org/2000/svg" viewBox="0 0 265.5 264.78"><defs><style>.cls-1{fill:#fff;fill-rule:evenodd;}</style></defs><g id="Layer_2" data-name="Layer 2"><g id="Layer_1-2" data-name="Layer 1"><polygon class="cls-1" points="46.27 107.04 44.64 111.44 54.12 115.54 44.64 119.64 46.27 124.04 59.48 118.55 59.48 112.53 46.27 107.04 46.27 107.04"/><polygon class="cls-1" points="23.95 107.04 22.32 111.44 31.8 115.54 22.32 119.64 23.95 124.04 37.16 118.55 37.16 112.53 23.95 107.04 23.95 107.04"/><polygon class="cls-1" points="1.63 113.04 0 117.41 9.48 121.48 0 125.55 1.63 129.91 14.84 124.47 14.84 118.49 1.63 113.04 1.63 113.04"/><polygon class="cls-1" points="2.98 137.04 2.4 141.67 12.52 143.49 4.25 149.61 6.82 153.5 18.4 145.2 17.04 139.37 2.98 137.04 2.98 137.04"/><polygon class="cls-1" points="25.41 130.8 24.48 135.37 34.45 137.93 25.74 143.41 28.02 147.47 40.21 140.07 39.28 134.16 25.41 130.8 25.41 130.8"/><polygon class="cls-1" points="48.24 134.16 48.41 138.83 58.75 139 51.53 146.38 54.72 149.81 64.86 139.73 62.56 134.18 48.24 134.16 48.24 134.16"/><polygon class="cls-1" points="10.44 159.6 10.6 164.27 20.87 164.44 13.71 171.82 16.87 175.25 26.94 165.17 24.66 159.62 10.44 159.6 10.44 159.6"/><polygon class="cls-1" points="32.4 154.01 32.86 158.69 43.12 158.2 36.44 166.07 39.82 169.31 49.22 158.54 46.59 153.12 32.4 154.01 32.4 154.01"/><polygon class="cls-1" points="21.48 181.12 23 185.56 32.92 182.73 28.17 191.91 32.21 194.28 38.98 181.67 35.18 177 21.48 181.12 21.48 181.12"/><polygon class="cls-1" points="44.88 175.03 46.81 179.28 56.43 175.55 52.56 185.06 56.8 187.02 62.35 173.93 58.13 169.68 44.88 175.03 44.88 175.03"/><polygon class="cls-1" points="60.6 159.11 62.51 163.37 72.06 159.63 68.22 169.2 72.44 171.17 77.95 158 73.75 153.72 60.6 159.11 60.6 159.11"/><polygon class="cls-1" points="37.68 198.91 40.05 202.95 49.15 198.18 46.36 208.11 50.77 209.62 54.84 195.91 50.2 192.12 37.68 198.91 37.68 198.91"/><polygon class="cls-1" points="62.76 191.46 65.77 195.04 74.04 188.87 72.88 199.07 77.51 199.84 79.33 185.73 74.1 182.76 62.76 191.46 62.76 191.46"/><polygon class="cls-1" points="81.6 175.91 84.95 179.15 92.48 172.16 92.42 182.43 97.07 182.71 97.38 168.49 91.89 166.08 81.6 175.91 81.6 175.91"/><polygon class="cls-1" points="84.12 202.6 87.83 205.45 94.49 197.55 95.63 207.84 100.3 207.56 98.91 193.28 93.18 191.52 84.12 202.6 84.12 202.6"/><polygon class="cls-1" points="78.36 224.18 82.2 226.83 88.47 218.67 90.11 228.82 94.75 228.32 92.68 214.23 86.87 212.76 78.36 224.18 78.36 224.18"/><polygon class="cls-1" points="56.28 214.31 59.48 217.74 67.44 211.12 66.82 221.44 71.49 221.96 72.55 207.68 67.16 204.96 56.28 214.31 56.28 214.31"/><polygon class="cls-1" points="101.52 229.72 105.85 231.42 110.11 222.09 113.99 231.57 118.39 230.04 113.2 216.84 107.22 216.72 101.52 229.72 101.52 229.72"/><polygon class="cls-1" points="107.64 207.75 111.97 209.46 116.23 200.06 120.11 209.62 124.51 208.07 119.32 194.76 113.34 194.64 107.64 207.75 107.64 207.75"/><polygon class="cls-1" points="107.64 185.2 111.97 186.9 116.23 177.57 120.11 187.05 124.51 185.53 119.32 172.32 113.34 172.2 107.64 185.2 107.64 185.2"/><polygon class="cls-1" points="134.88 182.85 139.58 182.95 140.36 172.7 147.35 180.3 150.98 177.35 141.47 166.68 135.76 168.63 134.88 182.85 134.88 182.85"/><polygon class="cls-1" points="131.76 207.33 136.41 207.76 137.88 197.5 144.28 205.62 148.08 202.89 139.39 191.52 133.6 193.09 131.76 207.33 131.76 207.33"/><polygon class="cls-1" points="125.64 229.59 130.15 230.75 133.22 220.92 138.25 229.91 142.42 227.83 135.65 215.28 129.69 215.91 125.64 229.59 125.64 229.59"/><polygon class="cls-1" points="149.16 225.55 153.83 225.38 154 215.11 161.38 222.27 164.81 219.1 154.72 209.04 149.18 211.33 149.16 225.55 149.16 225.55"/><polygon class="cls-1" points="154.72 199.65 159.39 199.11 158.74 188.79 166.71 195.39 169.9 191.94 158.99 182.64 153.6 185.37 154.72 199.65 154.72 199.65"/><polygon class="cls-1" points="171.22 216.62 175.78 215.66 174.21 205.46 182.67 211.3 185.5 207.58 173.9 199.32 168.84 202.52 171.22 216.62 171.22 216.62"/><polygon class="cls-1" points="187.92 232.58 192.52 231.62 190.93 221.42 199.46 227.26 202.31 223.54 190.62 215.28 185.52 218.49 187.92 232.58 187.92 232.58"/><polygon class="cls-1" points="203.13 248.46 207.75 247.82 206.88 237.59 214.93 243.97 218.02 240.49 207 231.48 201.72 234.31 203.13 248.46 203.13 248.46"/><polygon class="cls-1" points="219.33 264.78 223.95 264.14 223.09 253.91 231.14 260.3 234.23 256.81 223.21 247.8 217.92 250.63 219.33 264.78 219.33 264.78"/><polygon class="cls-1" points="237.49 249.94 241.9 248.37 238.91 238.56 248.15 243.13 250.46 239.08 237.76 232.56 233.16 236.42 237.49 249.94 237.49 249.94"/><polygon class="cls-1" points="222.29 234.69 226.6 232.86 223.07 223.16 232.55 227.24 234.62 223.04 221.57 217.2 217.2 221.33 222.29 234.69 222.29 234.69"/><polygon class="cls-1" points="206.75 218.37 211.05 216.51 207.47 206.84 216.97 210.87 219.03 206.66 205.95 200.88 201.6 205.03 206.75 218.37 206.75 218.37"/><polygon class="cls-1" points="190.31 202.65 194.61 200.79 191.03 191.12 200.53 195.15 202.59 190.94 189.51 185.16 185.16 189.31 190.31 202.65 190.31 202.65"/><polygon class="cls-1" points="174.95 186.68 179.26 184.84 175.68 175.15 185.18 179.19 187.23 174.97 174.15 169.2 169.8 173.35 174.95 186.68 174.95 186.68"/><polygon class="cls-1" points="159.08 171.05 163.31 169.06 159.41 159.5 169.05 163.22 170.96 158.94 157.69 153.6 153.48 157.89 159.08 171.05 159.08 171.05"/><polygon class="cls-1" points="191.77 169.23 195.3 166.16 188.92 158.07 199.22 158.99 199.88 154.37 185.63 152.88 182.76 158.15 191.77 169.23 191.77 169.23"/><polygon class="cls-1" points="177.4 150.1 180.48 146.55 173.02 139.37 183.37 138.87 183.39 134.16 169.05 134.64 166.92 140.29 177.4 150.1 177.4 150.1"/><polygon class="cls-1" points="202.62 147.61 205.5 143.95 197.76 137.17 208 136.18 207.79 131.52 193.59 132.69 191.76 138.39 202.62 147.61 202.62 147.61"/><polygon class="cls-1" points="220.31 164.43 223.37 160.85 215.85 153.72 226.2 153.15 226.18 148.44 211.84 149.04 209.76 154.7 220.31 164.43 220.31 164.43"/><polygon class="cls-1" points="227.77 142.29 230.26 138.34 221.76 132.46 231.9 130.36 231.18 125.76 217.09 128.46 215.88 134.32 227.77 142.29 227.77 142.29"/><polygon class="cls-1" points="230.65 118.03 232.19 113.63 222.62 109.76 232.01 105.49 230.28 101.16 217.2 106.88 217.33 112.87 230.65 118.03 230.65 118.03"/><polygon class="cls-1" points="208.95 124.27 210.47 119.87 200.98 116 210.3 111.73 208.58 107.4 195.6 113.12 195.73 119.11 208.95 124.27 208.95 124.27"/><polygon class="cls-1" points="185.9 123.91 187.42 119.51 177.94 115.64 187.25 111.37 185.54 107.04 172.56 112.77 172.69 118.75 185.9 123.91 185.9 123.91"/><polygon class="cls-1" points="183.89 96.25 183.63 91.6 173.36 91.64 180.38 84.13 177.14 80.76 167.28 91.02 169.67 96.52 183.89 96.25 183.89 96.25"/><polygon class="cls-1" points="199.81 77.62 199.23 72.99 188.99 73.75 195.46 65.77 192 62.64 182.88 73.57 185.65 78.88 199.81 77.62 199.81 77.62"/><polygon class="cls-1" points="221.87 71.16 221.44 66.51 211.19 66.92 217.92 59.16 214.56 55.92 205.08 66.53 207.67 71.94 221.87 71.16 221.87 71.16"/><polygon class="cls-1" points="210.45 50.06 209.02 45.59 199.11 48.26 203.98 39.16 200 36.72 193.08 49.22 196.79 53.96 210.45 50.06 210.45 50.06"/><polygon class="cls-1" points="187.04 56.7 185.17 52.42 175.58 56.08 179.51 46.54 175.31 44.52 169.68 57.65 173.84 61.97 187.04 56.7 187.04 56.7"/><polygon class="cls-1" points="194.38 31.99 191.99 27.97 182.91 32.8 185.65 22.85 181.23 21.36 177.24 35.09 181.9 38.86 194.38 31.99 194.38 31.99"/><polygon class="cls-1" points="171.2 72.46 169.32 68.2 159.66 71.83 163.62 62.37 159.39 60.36 153.72 73.39 157.91 77.68 171.2 72.46 171.2 72.46"/><polygon class="cls-1" points="150.47 54.48 147.14 51.19 139.56 58.17 139.71 47.84 135.05 47.52 134.64 61.84 140.1 64.31 150.47 54.48 150.47 54.48"/><polygon class="cls-1" points="148.09 29.37 144.36 26.56 137.78 34.53 136.54 24.24 131.88 24.56 133.4 38.84 139.15 40.54 148.09 29.37 148.09 29.37"/><polygon class="cls-1" points="153.73 7.05 150 4.24 143.42 12.2 142.18 1.92 137.52 2.24 139.04 16.52 144.79 18.22 153.73 7.05 153.73 7.05"/><polygon class="cls-1" points="124.28 45.7 119.85 44.16 115.91 53.63 111.65 44.3 107.28 45.99 113 59 119.02 58.89 124.28 45.7 124.28 45.7"/><polygon class="cls-1" points="124.76 23.52 120.32 21.96 116.39 31.51 112.13 22.1 107.76 23.81 113.47 36.92 119.5 36.82 124.76 23.52 124.76 23.52"/><polygon class="cls-1" points="130.39 1.72 126.04 0.07 121.89 9.44 117.9 0 113.52 1.58 118.86 14.73 124.83 14.78 130.39 1.72 130.39 1.72"/><polygon class="cls-1" points="106.33 0.76 101.73 0 99.53 10.05 93.74 1.55 89.76 3.98 97.61 15.86 103.48 14.72 106.33 0.76 106.33 0.76"/><polygon class="cls-1" points="100.44 24.91 95.77 24.36 94.02 34.5 87.78 26.28 83.88 28.9 92.35 40.4 98.22 38.98 100.44 24.91 100.44 24.91"/><polygon class="cls-1" points="96.94 48 92.27 48.13 92.03 58.4 84.69 51.18 81.24 54.32 91.25 64.46 96.81 62.22 96.94 48 96.94 48"/><polygon class="cls-1" points="77.27 31.68 72.65 32.33 73.55 42.56 65.48 36.21 62.4 39.71 73.46 48.67 78.73 45.83 77.27 31.68 77.27 31.68"/><polygon class="cls-1" points="57.19 44.52 52.9 46.41 56.55 56.06 47.02 52.09 45 56.31 58.12 62 62.44 57.82 57.19 44.52 57.19 44.52"/><polygon class="cls-1" points="72.23 60 68.02 62.04 72.01 71.55 62.34 67.94 60.48 72.24 73.8 77.43 77.96 73.09 72.23 60 72.23 60"/><polygon class="cls-1" points="41.03 28.2 36.82 30.24 40.82 39.76 31.15 36.14 29.28 40.44 42.6 45.64 46.77 41.3 41.03 28.2 41.03 28.2"/><polygon class="cls-1" points="24 46.32 20.31 49.22 26.26 57.67 16.02 56.21 15.12 60.82 29.27 63.05 32.42 57.91 24 46.32 24 46.32"/><polygon class="cls-1" points="39.84 62.04 36.36 65.14 42.77 73.17 32.54 72.34 31.92 76.97 46.07 78.32 48.88 73.04 39.84 62.04 39.84 62.04"/><polygon class="cls-1" points="54.84 80.88 51.53 84.17 58.39 91.83 48.12 91.58 47.76 96.23 61.97 96.79 64.48 91.35 54.84 80.88 54.84 80.88"/><polygon class="cls-1" points="29.09 83.88 26.37 87.68 34.49 94.07 24.24 95.56 24.67 100.21 38.9 98.34 40.47 92.56 29.09 83.88 29.09 83.88"/><polygon class="cls-1" points="12.28 66.6 9.09 70.02 16.28 77.42 5.94 77.56 5.76 82.24 20.08 82.25 22.39 76.7 12.28 66.6 12.28 66.6"/><polygon class="cls-1" points="4.18 89.52 2.01 93.64 10.87 98.89 0.96 101.72 2.01 106.25 15.79 102.54 16.56 96.6 4.18 89.52 4.18 89.52"/><polygon class="cls-1" points="83.15 5.84 78.45 5.76 77.72 16.02 70.69 8.46 67.08 11.44 76.65 22.06 82.35 20.07 83.15 5.84 83.15 5.84"/><polygon class="cls-1" points="60.95 15.24 56.33 15.9 57.23 26.2 49.16 19.8 46.08 23.33 57.14 32.36 62.41 29.49 60.95 15.24 60.95 15.24"/><polygon class="cls-1" points="169.55 38.59 166.23 35.33 158.65 42.26 158.79 31.99 154.13 31.68 153.72 45.9 159.19 48.35 169.55 38.59 169.55 38.59"/><polygon class="cls-1" points="175.55 16.75 172.23 13.48 164.65 20.41 164.79 10.15 160.13 9.84 159.72 24.05 165.19 26.5 175.55 16.75 175.55 16.75"/><polygon class="cls-1" points="207.96 99.67 208.21 95.01 197.99 93.91 205.8 87.22 202.95 83.52 192 92.63 193.77 98.36 207.96 99.67 207.96 99.67"/><polygon class="cls-1" points="229.29 94.08 229.72 89.43 219.54 87.96 227.59 81.56 224.89 77.76 213.6 86.45 215.16 92.24 229.29 94.08 229.29 94.08"/><polygon class="cls-1" points="208.09 185.18 211.62 182.11 205.24 174.02 215.53 174.95 216.21 170.33 201.96 168.84 199.08 174.1 208.09 185.18 208.09 185.18"/><polygon class="cls-1" points="224.41 201.5 227.94 198.43 221.56 190.34 231.85 191.27 232.53 186.65 218.28 185.16 215.4 190.43 224.41 201.5 224.41 201.5"/><polygon class="cls-1" points="240.04 217.39 243.8 214.6 238.1 205.98 248.27 207.73 249.3 203.16 235.25 200.52 231.96 205.57 240.04 217.39 240.04 217.39"/><polygon class="cls-1" points="256.29 233.95 260.03 231.18 254.37 222.62 264.47 224.36 265.5 219.81 251.54 217.2 248.28 222.21 256.29 233.95 256.29 233.95"/></g></g></svg>