<svg xmlns="http://www.w3.org/2000/svg" viewBox="0 0 313.02 246.33"><defs><style>.cls-1{fill:#fff;fill-rule:evenodd;}</style></defs><g id="Layer_2" data-name="Layer 2"><g id="Layer_1-2" data-name="Layer 1"><polygon class="cls-1" points="293.03 7.34 295.21 11.89 306.66 6.41 301.56 18.04 306.18 20.07 313.02 4.52 308.36 0 293.03 7.34 293.03 7.34"/><polygon class="cls-1" points="271.11 26.02 273.29 30.57 284.74 25.09 279.63 36.72 284.26 38.75 291.1 23.2 286.44 18.68 271.11 26.02 271.11 26.02"/><polygon class="cls-1" points="249.18 44.44 251.36 49 262.82 43.51 257.71 55.14 262.34 57.17 269.18 41.61 264.5 37.1 249.18 44.44 249.18 44.44"/><polygon class="cls-1" points="227.26 62.73 229.44 67.29 240.9 61.8 235.79 73.43 240.41 75.46 247.25 59.9 242.58 55.39 227.26 62.73 227.26 62.73"/><polygon class="cls-1" points="205.34 81.28 207.52 85.83 218.97 80.35 213.87 91.98 218.49 94 225.32 78.44 220.66 73.94 205.34 81.28 205.34 81.28"/><polygon class="cls-1" points="183.42 99.56 185.61 104.12 197.05 98.64 191.95 110.26 196.57 112.29 203.41 96.73 198.75 92.23 183.42 99.56 183.42 99.56"/><polygon class="cls-1" points="161.5 118.11 163.68 122.67 175.13 117.19 170.02 128.81 174.65 130.84 181.49 115.28 176.83 110.78 161.5 118.11 161.5 118.11"/><polygon class="cls-1" points="139.7 136.66 141.88 141.22 153.34 135.74 148.23 147.37 152.86 149.4 159.7 133.84 155.03 129.33 139.7 136.66 139.7 136.66"/><polygon class="cls-1" points="117.78 154.95 119.96 159.51 131.42 154.03 126.31 165.65 130.93 167.69 137.77 152.13 133.1 147.62 117.78 154.95 117.78 154.95"/><polygon class="cls-1" points="14.02 83.15 9.36 85.1 14.27 96.81 2.91 91.13 0.65 95.66 15.85 103.25 20.58 98.82 14.02 83.15 14.02 83.15"/><polygon class="cls-1" points="37.37 103.25 32.7 105.21 37.61 116.91 26.25 111.24 24 115.76 39.19 123.36 43.93 118.92 37.37 103.25 37.37 103.25"/><polygon class="cls-1" points="60.84 122.84 56.18 124.79 61.1 136.5 49.74 130.83 47.48 135.34 62.68 142.94 67.41 138.5 60.84 122.84 60.84 122.84"/><polygon class="cls-1" points="84.19 142.56 79.53 144.51 84.44 156.22 73.08 150.54 70.82 155.07 86.02 162.66 90.76 158.23 84.19 142.56 84.19 142.56"/><polygon class="cls-1" points="107.67 162.14 103.01 164.11 107.92 175.81 96.56 170.14 94.3 174.65 109.5 182.25 114.24 177.81 107.67 162.14 107.67 162.14"/><polygon class="cls-1" points="14.02 115.45 9.36 117.4 14.27 129.11 2.91 123.43 0.65 127.95 15.85 135.54 20.58 131.11 14.02 115.45 14.02 115.45"/><polygon class="cls-1" points="37.37 135.55 32.7 137.51 37.61 149.22 26.25 143.54 24 148.06 39.19 155.66 43.93 151.22 37.37 135.55 37.37 135.55"/><polygon class="cls-1" points="60.84 155.14 56.18 157.09 61.1 168.8 49.74 163.13 47.48 167.65 62.68 175.25 67.41 170.81 60.84 155.14 60.84 155.14"/><polygon class="cls-1" points="84.19 174.86 79.53 176.81 84.44 188.52 73.08 182.84 70.82 187.37 86.02 194.96 90.76 190.53 84.19 174.86 84.19 174.86"/><polygon class="cls-1" points="107.67 194.44 103.01 196.4 107.92 208.1 96.56 202.43 94.3 206.95 109.5 214.55 114.24 210.11 107.67 194.44 107.67 194.44"/><polygon class="cls-1" points="13.37 147.23 8.71 149.18 13.62 160.89 2.26 155.21 0 159.74 15.2 167.33 19.94 162.9 13.37 147.23 13.37 147.23"/><polygon class="cls-1" points="36.85 167.33 32.19 169.29 37.1 180.99 25.74 175.32 23.48 179.84 38.68 187.43 43.42 183 36.85 167.33 36.85 167.33"/><polygon class="cls-1" points="60.2 186.92 55.53 188.87 60.44 200.59 49.09 194.91 46.83 199.43 62.03 207.03 66.76 202.59 60.2 186.92 60.2 186.92"/><polygon class="cls-1" points="83.67 206.64 79.01 208.59 83.93 220.3 72.57 214.62 70.31 219.14 85.51 226.73 90.25 222.3 83.67 206.64 83.67 206.64"/><polygon class="cls-1" points="107.02 226.22 102.36 228.18 107.27 239.89 95.91 234.21 93.65 238.73 108.85 246.33 113.59 241.89 107.02 226.22 107.02 226.22"/><polygon class="cls-1" points="293.03 42.23 295.21 46.79 306.66 41.31 301.56 52.92 306.18 54.96 313.02 39.4 308.36 34.89 293.03 42.23 293.03 42.23"/><polygon class="cls-1" points="271.11 60.78 273.29 65.34 284.74 59.85 279.63 71.47 284.26 73.51 291.1 57.95 286.44 53.44 271.11 60.78 271.11 60.78"/><polygon class="cls-1" points="249.18 79.33 251.36 83.89 262.82 78.41 257.71 90.03 262.34 92.06 269.18 76.51 264.5 71.99 249.18 79.33 249.18 79.33"/><polygon class="cls-1" points="227.26 97.62 229.44 102.17 240.9 96.69 235.79 108.32 240.41 110.35 247.25 94.8 242.58 90.28 227.26 97.62 227.26 97.62"/><polygon class="cls-1" points="205.34 116.04 207.52 120.6 218.97 115.11 213.87 126.74 218.49 128.78 225.32 113.22 220.66 108.7 205.34 116.04 205.34 116.04"/><polygon class="cls-1" points="183.42 134.33 185.61 138.88 197.05 133.4 191.95 145.03 196.57 147.06 203.41 131.51 198.75 126.99 183.42 134.33 183.42 134.33"/><polygon class="cls-1" points="161.5 153.01 163.68 157.57 175.13 152.08 170.02 163.71 174.65 165.74 181.49 150.19 176.83 145.67 161.5 153.01 161.5 153.01"/><polygon class="cls-1" points="139.7 171.43 141.88 175.98 153.34 170.5 148.23 182.13 152.86 184.16 159.7 168.6 155.03 164.09 139.7 171.43 139.7 171.43"/><polygon class="cls-1" points="117.78 189.72 119.96 194.27 131.42 188.79 126.31 200.41 130.93 202.44 137.77 186.89 133.1 182.38 117.78 189.72 117.78 189.72"/><polygon class="cls-1" points="293.03 76.47 295.21 81.03 306.66 75.55 301.56 87.18 306.18 89.2 313.02 73.65 308.36 69.14 293.03 76.47 293.03 76.47"/><polygon class="cls-1" points="271.11 95.15 273.29 99.71 284.74 94.23 279.63 105.86 284.26 107.88 291.1 92.33 286.44 87.82 271.11 95.15 271.11 95.15"/><polygon class="cls-1" points="249.18 113.57 251.36 118.14 262.82 112.65 257.71 124.28 262.34 126.31 269.18 110.75 264.5 106.24 249.18 113.57 249.18 113.57"/><polygon class="cls-1" points="227.26 131.99 229.44 136.55 240.9 131.07 235.79 142.69 240.41 144.73 247.25 129.17 242.58 124.66 227.26 131.99 227.26 131.99"/><polygon class="cls-1" points="205.34 150.41 207.52 154.97 218.97 149.49 213.87 161.11 218.49 163.14 225.32 147.58 220.66 143.08 205.34 150.41 205.34 150.41"/><polygon class="cls-1" points="183.42 168.7 185.61 173.27 197.05 167.78 191.95 179.4 196.57 181.44 203.41 165.88 198.75 161.37 183.42 168.7 183.42 168.7"/><polygon class="cls-1" points="161.5 187.25 163.68 191.81 175.13 186.33 170.02 197.94 174.65 199.98 181.49 184.42 176.83 179.91 161.5 187.25 161.5 187.25"/><polygon class="cls-1" points="139.7 205.8 141.88 210.36 153.34 204.88 148.23 216.5 152.86 218.54 159.7 202.98 155.03 198.46 139.7 205.8 139.7 205.8"/><polygon class="cls-1" points="117.78 224.09 119.96 228.65 131.42 223.17 126.31 234.79 130.93 236.82 137.77 221.27 133.1 216.75 117.78 224.09 117.78 224.09"/></g></g></svg>