<svg xmlns="http://www.w3.org/2000/svg" xmlns:xlink="http://www.w3.org/1999/xlink" version="1.1" id="Layer_1" x="0px" y="0px" viewBox="0 0 1486.2 283.2" style="enable-background:new 0 0 1486.2 283.2;" xml:space="preserve">
<style type="text/css">
	.st0{fill:#000;}
</style>
<g>
	<g>
		<path class="st0" d="M61.5,5.8c1.1-0.1,1.9-0.2,2.8-0.2c36.5,0.1,73-0.1,109.4,0.3c10.9,0.1,21.3,3.3,31.4,7.8    c7.8,3.5,14.8,7.9,21.1,13.4c9.9,8.6,17.2,19.1,22.8,31.2c9.9,21.5,11.2,43.8,9.7,66.7c-1.1,15.6-4.6,30.7-10.3,45.2    c-7.5,19.1-17.5,36.7-31.5,52.2c-11,12.2-23.2,22.8-37.2,31.4c-12.2,7.5-25.2,13-39.1,16.7c-14.9,4-29.9,4.6-45.1,4.5    c-26.9,0-53.7,0-80.6,0c-4.6,0-4.8-0.6-3.9-5.1c2.6-13.3,5-26.6,7.6-39.9c2.2-11.2,4.5-22.4,6.6-33.6c2.1-10.8,4-21.7,6-32.6    c4.5-23.2,9-46.3,13.5-69.4C47.1,82,49.2,69.5,51.6,57c2.6-13.4,5.3-26.8,7.9-40.2C60.3,13.5,60.8,9.9,61.5,5.8z M82.3,224.2    c1,0.2,1.6,0.3,2.2,0.3c8.1,0.2,16.2,0.3,24.4,0.5c13,0.2,25.3-2.3,36.8-8.8c9.4-5.4,17-12.6,23.4-21.3c6.8-9.1,12-19.1,16.2-29.5    c5.4-13.2,8.2-27.1,9.2-41.3c1.1-15.4-0.5-30.3-7.7-44.2c-7.4-14.3-18.6-23.6-35.1-24.6c-11.7-0.8-23.5-0.6-35.2-0.6    c-0.9,0-2.4,1.9-2.7,3.1c-2.2,10.8-4.2,21.7-6.3,32.6c-4.4,23-8.9,46.1-13.2,69.1c-2.9,15.4-5.7,30.8-8.5,46.2    C84.6,211.7,83.4,217.9,82.3,224.2z"/>
		<path class="st0" d="M1302.8,91.6c-2.2,11.4-4.1,21.8-6.2,32.1c-4.1,20.8-8.3,41.6-12.3,62.5c-3,15.2-5.7,30.5-8.7,45.7    c-1.8,9.1-4,18.1-5.9,27.2c-0.8,4.1-1.2,8.4-1.7,12.5c-0.3,2.4-1.4,3.5-4.2,3.5c-13.2-0.1-26.5,0.1-39.7,0.1    c-1.5,0-2.9-0.3-4.6-0.4c1.8-9.7,3.4-19.1,5.2-28.4c2.9-15.2,6-30.4,8.9-45.7c3.6-18.9,7.3-37.8,10.9-56.8    c2.4-12.8,4.8-25.6,7.3-38.4c2.6-13.4,5.3-26.8,7.9-40.1c3.6-18.9,7.2-37.7,10.7-56.6c0.5-2.6,1.4-3.2,3.9-3.2    c20.1,0.1,40.2,0.1,60.4-0.1c3,0,4.1,1.1,5.1,3.9c13,35.2,26.2,70.4,39.4,105.6c6.1,16.3,12.1,32.6,18.1,48.9    c0.2,0.7,0.6,1.3,1.4,2.7c10.5-54,20.8-107.2,31.2-160.6c15.7,0,31.5,0,47.8,0c-1.2,6.2-2.3,12.3-3.5,18.3    c-3.7,19.4-7.3,38.9-11,58.3c-3.6,18.8-7.4,37.5-11,56.3c-3.6,19.1-7.1,38.3-10.7,57.4c-4.2,22.3-8.5,44.6-12.8,66.9    c-0.6,3.1-1.1,6.1-1.5,9.2c-0.3,2.1-1.1,3-3.4,3c-16.5-0.1-33-0.1-49.5-0.3c-1.1,0-2.7-1.2-3.1-2.3c-4.7-12.3-9.2-24.7-13.8-37    c-7.1-18.9-14.3-37.8-21.4-56.7c-5.6-15.1-11.2-30.3-16.8-45.4c-4.6-12.4-9.3-24.8-14-37.2C1304.6,95.1,1303.9,93.8,1302.8,91.6z"/>
		<path class="st0" d="M1211.2,123.7c-2.5,13-5,26.1-7.5,39.1c-0.4,2.3-0.2,5.7-1.6,6.6c-1.9,1.2-5,0.7-7.6,0.7    c-30.5,0-61-0.1-91.5-0.2c-2.2,0-3.3,0.7-3.8,3.1c-2.6,14.1-5.4,28.3-8.2,42.4c-3.7,18.7-7.4,37.5-11.1,56.2c-0.2,1-0.2,2-0.3,3.4    c-19.9,0-39.8,0-60.6,0c15-14.2,29.4-27.9,43.9-41.6c-0.1-0.3-0.3-0.6-0.4-1c-3.6,0-7.1,0-10.7,0c-7.4,0-14.7,0-22.1,0    c-4.4,0-4.6-0.1-3.8-4.3c2.5-12.8,5-25.6,7.5-38.4c3.2-16.7,6.5-33.4,9.6-50.1c3.8-20.1,7.5-40.2,11.3-60.3    c3.3-17.2,6.7-34.4,10.1-51.6c1.2-6.2,2.4-12.5,3.4-18.8c0.4-2.3,1.1-3.4,3.7-3.4c62.1,0.1,124.2,0.1,186.4,0.1    c0.7,0,1.5,0.1,2.6,0.2c-0.6,3.3-1,6.4-1.7,9.5c-2.7,12.9-5.5,25.7-8,38.6c-0.6,3.1-1.9,4.4-5.2,4.4c-39-0.1-78,0-117,0    c-1,0-2,0-3-0.3c-2.8-0.8-4.3-0.1-4.9,3c-2.6,14.8-5.4,29.6-8.1,44.4c-0.8,4.4-1.6,8.8-2.3,13.2c-0.1,0.7,1,1.5,1.5,2.3    c2.4,0.2,4.8,0.5,7.2,0.5c14.2,0,28.4,0,42.6,0c15.2,0,30.4,0,45.6,0C1209.1,121.4,1211.2,120.8,1211.2,123.7z"/>
		<path class="st0" d="M540,185.9c-1.1,6.1-2.4,12.2-3.2,18.3c-1.1,7.6,0.8,14.8,5,21.2c7.5,11.2,18.7,14.8,31.3,14    c8.5-0.5,15.5-5.6,22.2-10.6c6.5-4.9,11.1-11.4,14.1-18.9c0.9-2.2,1.8-3.1,4.3-3c14.8,1,29.6,1.8,44.4,2.6c3.4,0.2,3,2.2,2.1,4.1    c-3.2,6.4-6.1,13.2-10.1,19c-7.5,10.8-17,19.9-28.2,26.8c-13.6,8.3-28.1,14.3-43.8,17.7c-12.4,2.6-24.7,3.3-37,1.9    c-13.3-1.6-25.8-6-36.2-14.8c-12-10.1-20.2-22.9-24.4-37.9c-4.9-17.4-4.5-35.1-0.8-52.8c3.4-16,9.3-30.9,17.9-44.7    c13.5-21.5,31.9-37.4,55.3-47.2c17.6-7.4,36.3-10.4,55.4-9.2c15.1,1,28.6,6.6,39.8,17c17.9,16.6,24.5,37.7,24,61.3    c-0.2,10.4-2,20.8-3.1,31.1c-0.1,0.7-0.9,2.4-3.9,3.2 M581.8,152.2c0.3,0,1.2,0.1,1.2-0.1c5.2,0,10.5-0.1,15.7,0    c5.3,0.1,10.7,0.3,16,0.5c2.3,0.1,4.1-0.5,4.2-3.4c0.1-3,0.9-6,0.7-8.9c-0.4-4.8-0.6-9.8-2.3-14.2c-4.8-12.1-15.5-17.5-28.4-16.1    c-20.9,2.3-36.2,19.4-40.4,39.7c-0.5,2.3,1,2.9,2.7,2.9C561.9,152.6,571.2,152.2,581.8,152.2z"/>
		<path class="st0" d="M874.1,148.1c-7.4,0.6-14.6,1.2-21.8,1.6c-9.7,0.6-19.4,1.1-29.1,1.6c-4.8,0.2-5.2-0.2-4.8-5    c0.4-5.5,0.3-10.9-2-16.1c-3.9-8.4-11-12.6-19.6-14.2c-15.5-2.9-25.7,5.6-33.5,17.3c-11.6,17.5-19,36.7-20.3,58    c-0.6,9.3,0.1,18.3,3.7,27c4,9.6,13.2,16.6,25,14.7c13.1-2.1,23.5-8.3,30.8-19.3c2.5-3.8,4-8.5,5.3-12.9c0.8-2.9,2-3.7,4.9-3.5    c12.4,1,24.9,1.8,37.3,2.7c2.7,0.2,5.5,0.3,8.2,0.5c2.7,0.1,3.7,1.1,3,4.1c-5.1,21.1-17.1,37.5-33.8,50.9    c-12.3,9.8-26,16.7-41.1,20.6c-14.1,3.6-28.5,4.7-42.9,2.8c-29-3.8-51.7-18.6-61.7-51.9c-6-20-4.4-40,1.3-60    c5.1-17.7,13.2-33.9,24.5-48.4c10-12.8,22-23.4,35.9-31.8c14-8.4,29.2-12.9,45.5-14.3c11.2-0.9,22.1-0.6,32.9,1.9    c20.5,4.8,36,16.4,45.8,35.1C873.8,121.5,875,134.6,874.1,148.1z"/>
		<path class="st0" d="M942,5.9c18.6,0,36.8,0,55.2,0c-4.1,23.3-8.1,46.2-12.2,69.7c14.4,0,28.3,0,42.5,0    c-1.1,5.8-2.1,11.3-3.2,16.7c-1.7,8.2-3.6,16.3-5.1,24.5c-0.6,3.5-2.1,4.8-5.7,4.7c-12.6-0.2-25.2-0.1-38.1-0.1    c-1.2,6.1-2.4,12-3.5,18c-3,15.8-6.1,31.7-8.9,47.6c-1.6,8.8-2.7,17.7-3.9,26.6c-0.4,2.7-1.2,5.6-0.7,8.2    c1.3,7.3,5.8,9.9,15.4,10.7c7.6,0.6,15.2,0.3,22.8,0.1c3.4-0.1,4.2,1.3,3.6,4.3c-2.2,11.1-4.5,22.1-6.6,33.2    c-0.6,2.9-1.7,4.5-4.9,4.9c-14.3,1.9-28.4,5-42.9,4.8c-10.5-0.2-20.7-1.8-30.1-6.4c-10.4-5.2-16-13.9-18-25.2    c-1.6-9.1,0-18.1,1.7-27c2.5-12.7,4.8-25.4,7.3-38c3.7-19.1,7.5-38.2,11.2-57.3c0.2-1.1,0.2-2.2,0.3-4c-10.9,0-21.6,0-33.1,0    c1.1-5.7,2.1-10.8,3.1-15.8c1.8-8.6,3.9-17.2,5.5-25.8c0.6-3.5,2.2-4.6,5.4-4.5c9,0.2,18,0.1,27,0.5c2.9,0.1,3.8-0.9,4.3-3.7    c3.5-20.5,7.2-40.9,10.8-61.3C941.4,9.2,941.7,7.6,942,5.9z"/>
		<path class="st0" d="M407.8,274.9c-19.2,0-38.1,0-57.5,0c2-10.3,3.9-20.3,5.9-30.2c3.7-19.2,7.4-38.4,11.2-57.7    c4.5-22.8,9-45.5,13.4-68.3c2.5-13,5-26,7.4-39.1c0.5-3,1.7-4.1,4.9-4.1c14.6,0.1,29.2,0,43.8,0c1.7,0,3.4,0.2,5.4,0.4    c-2.5,12.4-5,24.5-7.4,36.5c0.2,0.1,0.4,0.2,0.7,0.3c2.7-4.2,5.2-8.6,8.1-12.7c5.7-8.2,11.7-16.2,20.3-21.6    c7.3-4.6,15.4-6.9,24.2-6.7c9.1,0.2,9-1.3,6.9,8.7c-3.2,15.3-6.2,30.6-9.2,45.9c-0.4,2.2-1.1,2.9-3.5,3.2c-7.8,1.1-15.6,1.6-23,5    c-10.6,4.9-18.3,12.5-23.8,22.5c-6.6,11.9-9.3,25-12,38.1c-1.9,9.3-4.1,18.6-5.9,27.9c-2.9,15-5.6,30-8.4,45    C408.9,270.5,408.3,272.7,407.8,274.9z"/>
		<path class="st0" d="M352.8,76.7c-2.3,11.2-4.5,21.4-6.5,31.6c-2.6,13.2-5,26.5-7.5,39.7c-4.8,25.3-9.7,50.6-14.6,75.9    c-2.9,15.3-5.9,30.7-8.8,46c-1,5.1-1.3,5.5-6.5,5.5c-15.6,0-31.2,0-46.9,0c-1.6,0-3.2-0.2-5.4-0.4c0.9-5.3,1.7-10.3,2.7-15.3    c3.2-16.3,6.4-32.6,9.6-48.9c4.5-23.1,9-46.2,13.5-69.4c4-20.7,8-41.3,12.2-62c0.2-0.9,1.9-2.2,2.9-2.2    c14.1-0.3,28.2-0.4,42.3-0.5C344,76.6,347.9,76.7,352.8,76.7z"/>
		<path class="st0" d="M298.7,58.1c3.3-17.7,6.5-35,9.7-52.6c19.4,0,38.6,0,58.2,0c-3.3,17.7-6.6,35-9.9,52.6    C337.6,58.1,318.6,58.1,298.7,58.1z"/>
		<path class="st0" d="M539.9,185.5c0.3-2.9,2.4-2.7,4.5-2.6c18.1,0,36.2,0,54.4,0c20.1,0,40.2,0,60.4,0c3,0,5.9,0.5,8.9,0.7    c-1,0.5-2,1.4-3,1.4c-35,0.1-69.9,0.1-104.9,0.1C553.4,185.1,546.7,185.3,539.9,185.5z"/>
	</g>
</g>
</svg>